{"glyphs":{"0":{"ha":735,"x_min":-1,"x_max":663,"o":"m 663 472 q 643 307 663 372 q 595 199 624 242 q 529 133 567 157 q 456 97 492 108 q 399 85 421 86 q 351 85 376 83 q 314 90 343 85 q 248 110 285 94 q 169 153 211 125 q 91 230 126 181 q 28 350 56 279 q -1 522 1 421 q 17 658 1 601 q 58 756 33 714 q 110 824 82 799 q 171 864 139 850 q 329 897 240 903 q 363 894 338 897 q 423 879 388 892 q 500 840 458 867 q 577 767 542 814 q 637 647 613 719 q 663 472 661 575 m 560 421 q 553 581 567 506 q 509 713 539 657 q 433 803 479 769 q 329 839 386 836 q 232 819 275 843 q 160 738 194 796 q 119 567 126 679 q 138 372 110 454 q 208 236 165 290 q 292 157 250 182 q 369 132 335 132 q 425 144 394 131 q 482 190 456 158 q 529 278 508 222 q 560 421 550 335 z "},"1":{"ha":347,"x_min":0,"x_max":276,"o":"m 99 136 l 115 767 q 74 740 90 746 q 25 722 53 731 l 0 782 q 57 803 33 790 q 97 838 81 817 q 129 889 115 863 l 213 888 q 207 158 203 163 q 276 83 210 150 l 36 83 l 99 136 z "},"2":{"ha":708,"x_min":0,"x_max":636,"o":"m 0 826 q 80 863 28 844 q 194 892 132 882 q 322 903 256 903 q 446 885 389 903 q 545 831 503 868 q 603 726 588 793 q 605 630 613 679 q 578 532 597 581 q 528 436 558 483 q 468 347 499 389 q 290 157 392 250 q 399 161 347 158 q 482 167 442 165 q 539 171 522 168 q 570 188 553 175 q 603 214 588 201 q 636 250 621 231 l 636 88 l 371 88 q 272 88 321 88 q 187 88 224 88 q 126 88 150 88 q 103 88 103 88 q 201 183 149 125 q 303 299 254 240 q 389 408 351 357 q 442 485 426 460 q 465 530 451 501 q 485 593 478 558 q 491 665 493 628 q 472 732 489 701 q 422 783 456 763 q 326 808 388 804 q 220 800 265 811 q 142 774 175 789 q 89 742 110 758 q 56 718 68 726 q 46 735 54 718 q 28 772 38 751 q 0 826 17 796 z "},"3":{"ha":650,"x_min":0,"x_max":593,"o":"m 0 863 q 128 892 61 883 q 259 900 194 901 q 384 886 324 899 q 490 852 444 874 q 563 801 536 831 q 590 733 589 772 q 560 615 593 661 q 485 542 526 569 q 409 503 444 515 q 374 490 374 492 q 399 481 374 490 q 456 448 424 471 q 517 388 488 425 q 550 296 546 350 q 531 213 551 246 q 475 156 510 179 q 395 118 440 132 q 303 97 350 104 q 51 90 192 79 l 51 161 q 240 163 157 151 q 310 178 276 168 q 372 205 344 188 q 415 247 399 222 q 431 307 431 271 q 417 359 431 338 q 385 395 404 381 q 339 418 365 410 q 286 432 313 426 q 143 433 222 442 l 143 514 q 169 515 144 515 q 231 517 194 514 q 311 528 268 519 q 391 558 354 538 q 451 613 428 579 q 474 699 475 646 q 442 771 474 744 q 365 808 411 797 q 265 815 319 818 q 160 803 210 813 q 76 778 111 793 q 29 753 42 763 l 0 863 z "},"4":{"ha":671,"x_min":0,"x_max":618,"o":"m 478 418 q 485 142 479 154 q 499 119 492 131 q 522 86 508 104 l 315 85 l 350 111 q 386 144 382 138 q 389 418 389 146 l 0 418 l 408 901 l 472 900 l 478 496 l 617 507 l 618 421 l 478 418 m 168 479 l 388 489 l 394 765 l 168 479 z "},"5":{"ha":571,"x_min":0,"x_max":503,"o":"m 482 911 l 482 789 l 79 788 l 81 558 q 142 559 103 558 q 225 557 181 560 q 316 544 269 554 q 402 515 363 535 q 468 465 442 496 q 500 385 494 433 q 489 317 503 349 q 449 258 475 286 q 389 206 424 229 q 317 163 354 182 q 119 85 232 118 l 86 167 q 232 222 168 192 q 294 253 268 239 q 339 288 319 268 q 371 330 358 308 q 382 381 383 351 q 364 425 381 408 q 320 453 347 442 q 256 470 293 464 q 183 478 218 476 q 0 469 104 481 l 3 871 l 482 911 z "},"6":{"ha":583,"x_min":3,"x_max":514,"o":"m 303 526 q 360 518 325 526 q 428 487 394 510 q 488 422 463 464 q 514 310 514 379 q 478 193 514 238 q 398 127 443 149 q 308 100 353 106 q 242 94 263 94 q 182 107 221 96 q 103 147 143 118 q 35 232 64 176 q 6 378 6 288 q 8 351 8 358 q 8 347 8 344 q 6 375 8 349 q 15 483 3 414 q 67 633 28 553 q 184 796 106 714 q 393 944 263 878 q 424 896 413 917 q 443 862 433 876 q 451 847 453 847 q 307 769 368 813 q 203 678 246 726 q 136 579 160 629 q 103 486 113 529 q 303 526 221 531 m 229 157 q 316 172 281 151 q 372 225 351 192 q 397 298 392 258 q 392 374 401 338 q 359 435 383 410 q 299 464 335 460 q 210 451 243 468 q 158 411 176 435 q 131 360 139 388 q 119 315 122 333 q 119 263 114 292 q 140 212 125 235 q 179 174 156 189 q 229 157 203 158 z "},"7":{"ha":599,"x_min":1,"x_max":531,"o":"m 1 885 l 531 896 l 456 82 l 356 85 l 454 804 l 10 782 l 1 885 z "},"8":{"ha":679,"x_min":10,"x_max":631,"o":"m 454 554 q 572 511 532 549 q 622 423 613 474 q 610 314 631 372 q 547 205 590 256 q 435 120 503 154 q 282 85 367 86 q 167 105 221 83 q 76 162 113 126 q 25 243 40 197 q 22 338 10 289 q 78 430 35 386 q 201 507 121 474 q 119 558 151 522 q 76 636 88 593 q 72 727 64 679 q 108 814 81 775 q 183 881 136 853 q 294 913 229 908 q 430 878 375 917 q 508 783 485 840 q 518 662 531 725 q 454 554 506 599 m 307 853 q 235 829 264 853 q 192 770 206 806 q 178 695 178 735 q 192 621 178 656 q 233 566 206 586 q 306 550 261 546 q 370 575 343 551 q 409 633 397 599 q 420 705 421 667 q 406 776 419 743 q 367 831 393 808 q 307 853 342 853 m 318 153 q 424 179 379 153 q 492 246 469 206 q 518 333 515 286 q 504 416 521 379 q 448 476 488 453 q 347 493 408 500 q 238 459 283 488 q 165 391 192 431 q 131 309 138 351 q 142 230 124 267 q 203 171 161 193 q 318 153 246 149 z "},"9":{"ha":524,"x_min":0,"x_max":464,"o":"m 464 599 q 451 492 464 546 q 415 390 439 438 q 363 299 392 342 q 306 222 335 257 q 142 69 233 139 l 67 158 q 200 264 142 207 q 293 368 251 311 q 339 481 335 425 q 195 452 258 444 q 90 490 132 460 q 24 559 47 519 q 0 635 0 599 q 12 731 0 683 q 50 817 24 778 q 122 881 76 856 q 226 908 167 907 q 249 906 229 908 q 296 895 269 903 q 351 868 322 888 q 403 814 379 849 q 445 729 428 779 q 464 599 463 679 m 265 521 q 319 552 297 525 q 348 616 342 579 q 348 692 354 653 q 322 765 342 731 q 268 819 301 800 q 190 835 235 839 q 125 803 149 829 q 92 740 101 776 q 91 661 83 703 q 121 587 99 619 q 179 534 143 554 q 265 521 215 514 z "}," ":{"ha":486,"x_min":0,"x_max":0,"o":""},"!":{"ha":250,"x_min":49,"x_max":210,"o":"m 122 217 l 69 225 l 85 972 l 210 961 l 122 217 m 90 146 q 127 136 110 149 q 149 100 144 124 q 142 60 153 78 q 111 38 131 42 q 74 47 92 35 q 53 83 57 60 q 60 124 49 106 q 90 146 71 142 z "},"\"":{"ha":181,"x_min":1,"x_max":129,"o":"m 25 875 l 1 1003 l 57 1004 l 54 875 l 25 875 m 75 1015 l 129 1006 l 113 901 l 83 901 l 75 1015 z "},"#":{"ha":444,"x_min":0,"x_max":372,"o":"m 367 571 l 297 565 l 288 508 l 347 506 l 342 468 l 279 465 l 269 354 l 232 356 l 243 464 l 144 458 l 144 347 l 111 344 l 106 457 l 19 453 l 22 503 l 103 503 l 100 556 l 0 546 l 0 596 l 99 599 l 93 703 l 138 699 l 138 597 l 254 599 l 260 676 l 313 669 l 301 599 l 372 600 l 367 571 m 247 508 l 251 563 l 144 554 l 144 507 l 247 508 z "},"$":{"ha":1063,"x_min":0,"x_max":1058,"o":"m 533 1049 q 735 1006 640 1049 q 903 892 831 964 q 1017 722 975 819 q 1058 515 1058 625 q 1017 313 1058 408 q 903 146 975 218 q 735 32 831 74 q 533 -10 640 -10 q 497 -9 511 -10 q 467 -6 482 -8 l 632 396 q 747 460 696 415 q 818 575 797 504 q 832 706 844 640 q 779 822 819 772 l 704 615 l 538 582 l 425 707 l 492 915 q 381 857 431 900 q 311 743 331 814 q 300 608 286 678 q 358 489 314 538 l 232 82 q 63 267 126 153 q 0 515 0 381 q 42 722 0 625 q 157 892 85 819 q 326 1006 229 964 q 533 1049 424 1049 z "},"%":{"ha":528,"x_min":0,"x_max":465,"o":"m 390 474 q 448 440 431 474 q 462 365 465 406 q 433 290 458 325 q 361 256 407 256 q 299 290 315 256 q 288 366 282 325 q 321 440 294 407 q 390 474 347 474 m 367 304 q 406 324 392 304 q 423 369 419 344 q 418 412 426 393 q 390 429 410 431 q 351 408 367 426 q 329 367 335 390 q 332 325 324 344 q 367 304 340 306 m 99 633 q 38 645 61 632 q 8 678 15 658 q 6 723 0 699 q 28 769 11 747 q 74 803 46 790 q 139 817 103 817 q 190 788 174 817 q 201 726 206 760 q 172 663 196 692 q 99 633 147 635 m 131 760 q 84 750 106 763 q 53 722 63 738 q 50 692 43 706 q 89 678 57 678 q 131 687 111 675 q 158 714 150 699 q 161 742 167 729 q 131 760 156 756 m 410 840 l 81 103 l 1 142 l 347 865 l 410 840 z "},"&":{"ha":646,"x_min":33,"x_max":549,"o":"m 549 229 l 479 143 q 264 313 358 221 q 185 399 224 351 q 118 497 147 446 q 71 603 89 547 q 54 717 53 658 q 64 780 54 758 q 87 810 74 801 q 111 821 100 819 q 125 822 122 822 q 144 819 126 822 q 188 802 163 815 q 236 769 213 789 q 275 718 260 750 q 277 667 285 696 q 252 605 269 638 q 211 536 235 572 q 165 460 188 500 q 126 380 143 421 q 107 294 110 339 q 150 208 114 231 q 229 185 186 185 q 282 192 253 185 q 336 226 311 200 q 373 301 361 251 q 375 435 385 350 l 265 432 l 260 494 l 440 493 q 428 314 447 393 q 406 248 419 281 q 367 190 392 215 q 310 151 343 165 q 229 138 276 138 q 136 149 174 138 q 76 181 99 161 q 43 229 53 201 q 33 294 33 257 q 47 348 33 315 q 80 418 60 381 q 124 494 100 456 q 167 569 147 533 q 199 632 186 604 q 213 675 213 660 q 203 715 213 697 q 181 741 193 732 q 154 750 169 750 q 126 738 139 750 q 111 669 104 715 q 148 567 118 622 q 226 452 178 511 q 328 344 274 393 q 442 263 383 296 q 549 229 500 231 z "},"'":{"ha":179,"x_min":0,"x_max":122,"o":"m 86 1006 q 115 963 108 986 q 115 911 122 940 q 69 843 107 882 l 43 860 q 78 895 71 881 q 85 919 86 910 q 55 915 71 913 q 25 929 39 918 q 3 967 7 944 q 14 1004 0 989 q 48 1019 28 1019 q 86 1006 68 1019 z "},"(":{"ha":410,"x_min":7,"x_max":351,"o":"m 290 74 l 228 1 q 151 75 190 31 q 87 168 121 113 q 25 303 53 224 q 17 428 7 356 q 60 574 28 500 q 137 720 93 649 q 219 844 181 792 q 292 933 258 896 q 329 971 326 971 l 351 925 q 229 753 283 839 q 149 596 188 682 q 108 411 111 510 q 140 267 110 328 q 203 163 169 207 q 290 74 242 111 z "},")":{"ha":403,"x_min":0,"x_max":344,"o":"m 61 899 l 124 971 q 200 897 161 942 q 265 804 231 860 q 326 669 299 749 q 334 544 344 617 q 291 398 324 472 q 215 252 258 324 q 132 128 171 181 q 59 39 93 76 q 22 1 25 1 l 0 47 q 122 219 68 133 q 202 376 164 290 q 243 561 240 463 q 212 705 242 644 q 149 810 182 765 q 61 899 110 861 z "},"*":{"ha":368,"x_min":0,"x_max":299,"o":"m 299 751 l 251 711 l 163 832 l 117 708 l 92 719 l 132 840 l 11 789 l 0 828 l 132 875 l 56 985 l 76 1000 l 153 915 l 190 1035 l 233 1018 l 190 899 l 279 929 l 286 904 l 196 865 l 299 751 z "},"+":{"ha":417,"x_min":-1,"x_max":347,"o":"m 347 503 l 214 500 l 213 301 l 165 300 l 163 500 l 0 497 l -1 549 l 163 551 l 160 710 l 217 710 l 214 551 l 344 554 l 347 503 z "},",":{"ha":188,"x_min":10,"x_max":131,"o":"m 114 72 q 115 4 131 38 q 65 -69 100 -29 l 36 -49 q 74 -11 56 -31 q 93 18 93 8 q 39 25 67 6 q 15 57 21 38 q 21 94 10 76 q 54 112 35 110 q 93 101 74 114 q 114 72 108 90 z "},"-":{"ha":389,"x_min":0,"x_max":314,"o":"m 0 483 l 314 511 l 308 419 l 4 431 l 0 483 z "},".":{"ha":196,"x_min":21,"x_max":136,"o":"m 50 69 q 26 102 32 82 q 32 140 21 122 q 67 158 46 157 q 107 146 88 160 q 131 113 125 133 q 124 75 136 92 q 91 57 111 58 q 50 69 71 56 z "},"/":{"ha":478,"x_min":0,"x_max":414,"o":"m 313 924 l 414 907 l 56 86 l 0 104 l 313 924 z "},":":{"ha":215,"x_min":1,"x_max":153,"o":"m 114 318 q 144 272 140 299 q 133 219 149 244 q 88 191 117 196 q 36 203 60 186 q 6 248 11 221 q 18 301 1 275 q 63 329 35 325 q 114 318 90 333 m 53 600 q 28 640 32 615 q 38 686 24 665 q 77 710 53 706 q 122 700 101 715 q 148 661 143 686 q 138 617 153 636 q 98 591 124 596 q 53 600 72 586 z "},";":{"ha":207,"x_min":0,"x_max":140,"o":"m 104 315 q 123 294 113 311 q 133 249 133 276 q 118 190 133 222 q 60 121 103 157 l 22 140 q 63 188 50 161 q 75 224 76 215 q 46 224 61 217 q 25 233 31 231 q 3 268 6 244 q 14 307 0 292 q 51 326 28 322 q 104 315 75 331 m 108 688 q 136 645 132 672 q 125 596 140 618 q 83 568 110 572 q 35 581 57 564 q 6 623 10 596 q 17 672 1 650 q 59 699 32 694 q 108 688 86 703 z "},"<":{"ha":276,"x_min":1,"x_max":207,"o":"m 176 650 l 207 607 l 57 481 l 201 368 l 163 313 l 1 467 l 176 650 z "},"=":{"ha":426,"x_min":4,"x_max":356,"o":"m 7 410 l 4 450 l 344 467 l 344 411 l 7 410 m 353 536 l 356 497 l 13 507 l 18 563 l 353 536 z "},">":{"ha":278,"x_min":1,"x_max":210,"o":"m 33 314 l 1 357 l 153 483 l 4 599 l 46 654 l 210 497 l 33 314 z "},"?":{"ha":738,"x_min":-1,"x_max":671,"o":"m 647 804 q 670 721 671 761 q 652 647 669 681 q 605 582 635 613 q 539 526 575 551 q 338 422 457 468 l 407 217 l 324 197 l 260 465 q 431 539 361 493 q 488 580 463 557 q 530 631 514 603 q 547 694 546 660 q 531 765 549 728 q 468 833 508 814 q 375 856 428 853 q 247 835 322 860 q 81 717 172 810 l -1 799 q 72 845 24 819 q 182 894 121 871 q 311 925 243 918 q 444 925 379 932 q 561 890 508 918 q 647 804 614 861 m 404 128 q 432 100 422 122 q 435 51 442 78 q 409 12 428 26 q 371 3 390 -3 q 343 29 353 7 q 340 78 333 51 q 366 117 347 103 q 404 128 385 132 z "},"@":{"ha":660,"x_min":3,"x_max":588,"o":"m 322 692 q 348 690 326 692 q 399 681 369 689 q 462 658 428 674 q 523 615 496 643 q 569 543 550 586 q 588 439 588 500 q 566 359 583 388 q 530 316 549 331 q 494 299 511 301 q 474 296 476 296 q 472 295 479 296 q 453 297 465 294 q 425 308 440 300 q 396 332 410 315 q 383 313 394 324 q 357 293 372 301 q 325 279 342 285 q 294 274 308 274 q 253 286 275 274 q 213 320 231 299 q 188 372 196 342 q 190 439 181 401 q 206 480 194 457 q 235 524 217 503 q 280 558 253 544 q 342 571 307 571 q 391 549 374 567 q 415 506 408 531 q 424 450 422 481 q 431 396 426 419 q 444 358 435 372 q 474 346 453 343 q 508 373 494 350 q 524 427 521 396 q 519 494 528 458 q 487 561 511 531 q 423 611 463 592 q 324 631 383 631 q 192 597 239 629 q 122 524 144 564 q 92 447 99 483 q 86 399 86 410 q 92 344 85 375 q 114 281 99 313 q 155 223 129 250 q 220 181 181 196 q 313 168 260 167 q 435 197 365 169 q 439 189 436 197 q 446 168 442 181 q 457 138 451 154 q 405 119 443 128 q 316 108 367 110 q 210 117 265 107 q 110 160 156 128 q 34 249 64 192 q 3 394 4 306 q 47 559 4 499 q 144 650 89 619 q 250 688 199 681 q 322 692 301 694 m 300 326 q 336 338 321 324 q 360 374 351 351 q 373 424 369 396 q 372 474 376 451 q 358 513 368 497 q 326 529 347 529 q 279 501 299 531 q 253 436 260 472 q 257 367 247 400 q 300 326 267 335 z "},"A":{"ha":689,"x_min":0,"x_max":667,"o":"m 0 0 l 286 979 l 667 14 l 507 3 l 539 46 l 278 736 l 194 408 l 421 425 l 436 351 l 179 336 l 90 38 l 125 0 l 1 1 l 0 0 z "},"B":{"ha":688,"x_min":0,"x_max":639,"o":"m 1 971 q 80 972 32 971 q 181 970 128 972 q 288 958 233 968 q 387 927 343 947 q 459 872 431 907 q 490 782 488 836 q 458 665 493 714 q 378 585 422 615 q 274 539 325 551 q 451 524 367 550 q 522 488 488 510 q 585 426 556 467 q 626 348 614 386 q 638 263 639 310 q 608 155 636 200 q 535 79 581 110 q 431 31 490 49 q 306 7 372 14 q 171 1 239 0 q 38 10 103 3 q 37 50 38 36 q 36 72 36 64 q 36 81 36 79 q 36 86 36 83 q 72 78 36 86 q 161 67 107 71 q 280 68 215 64 q 399 93 344 72 q 493 159 454 114 q 536 283 532 204 q 510 376 536 340 q 441 435 483 413 q 347 464 399 457 q 253 472 296 471 q 181 472 210 474 q 151 469 151 469 q 151 484 151 471 q 153 513 151 497 q 154 563 153 531 q 283 600 226 575 q 331 626 307 611 q 372 663 354 640 q 398 713 389 685 q 406 778 407 742 q 385 840 404 817 q 338 875 367 863 q 278 892 310 888 q 217 896 246 896 q 151 894 189 896 l 182 33 l 79 39 q 83 892 83 892 q 69 892 82 892 q 40 890 57 892 l 0 888 l 1 971 z "},"C":{"ha":722,"x_min":10,"x_max":657,"o":"m 657 956 l 611 844 q 360 857 469 881 q 269 822 313 846 q 192 752 225 797 q 142 638 160 707 q 129 468 124 568 q 155 290 133 361 q 208 176 176 219 q 278 110 239 132 q 358 83 318 89 q 569 122 453 69 l 617 15 q 307 26 442 -12 q 195 75 249 42 q 100 163 142 108 q 34 299 58 217 q 14 494 10 381 q 72 703 19 611 q 213 858 125 796 q 415 945 300 919 q 657 956 531 971 z "},"D":{"ha":794,"x_min":3,"x_max":744,"o":"m 3 943 q 324 949 176 975 q 449 913 386 938 q 565 844 511 889 q 660 733 619 800 q 722 569 701 665 q 727 353 744 443 q 666 199 710 263 q 559 97 622 135 q 428 38 496 58 q 44 11 264 -12 l 42 89 q 338 92 210 61 q 445 131 393 104 q 540 206 497 158 q 605 324 583 253 q 619 496 626 394 q 592 638 615 579 q 534 741 568 697 q 460 810 500 785 q 378 851 421 836 q 169 878 282 886 l 188 56 l 96 69 l 96 874 l 11 861 l 3 943 z "},"E":{"ha":692,"x_min":0,"x_max":643,"o":"m 0 972 l 643 963 l 642 799 q 588 843 613 822 q 535 886 563 864 l 158 890 l 161 557 l 424 569 l 424 481 l 163 481 l 172 79 q 486 86 485 85 q 601 161 490 88 l 601 3 l 33 3 l 33 79 l 74 76 l 74 893 l 0 893 l 0 972 z "},"F":{"ha":696,"x_min":0,"x_max":654,"o":"m 0 969 l 654 967 l 650 782 q 618 829 633 807 q 592 865 606 847 q 569 885 579 882 q 543 887 565 886 q 142 883 521 888 l 149 553 l 396 561 l 393 474 l 150 475 q 164 75 163 79 q 257 1 167 68 l 14 1 q 68 57 67 51 q 63 477 68 60 q 61 888 57 894 l 3 888 l 0 969 z "},"G":{"ha":756,"x_min":11,"x_max":683,"o":"m 663 963 l 667 800 l 635 840 q 610 870 622 857 q 592 885 599 883 q 431 871 510 893 q 287 799 353 849 q 180 672 221 749 q 133 493 139 594 q 151 314 126 396 q 234 175 175 232 q 378 91 293 118 q 581 83 463 64 l 544 471 l 292 460 l 288 542 l 617 547 l 683 24 q 339 19 493 -14 q 212 65 274 33 q 105 151 150 96 q 35 291 60 207 q 21 496 11 375 q 60 647 25 578 q 147 774 94 715 q 265 872 199 833 q 401 935 331 911 q 539 964 471 958 q 663 963 607 969 z "},"H":{"ha":725,"x_min":1,"x_max":644,"o":"m 504 4 q 542 60 524 28 q 536 317 543 171 l 99 299 l 96 1 l 3 1 l 1 967 l 153 972 q 110 899 150 975 q 99 371 103 875 l 532 382 l 506 957 l 606 963 l 644 3 l 504 4 z "},"I":{"ha":300,"x_min":3,"x_max":235,"o":"m 3 971 l 192 971 q 169 950 179 960 q 154 933 163 942 q 144 919 146 925 q 147 499 144 918 q 151 78 150 79 q 235 3 154 74 l 6 0 q 51 51 44 38 q 58 480 54 57 q 61 907 61 903 q 49 924 57 914 q 3 971 40 935 z "},"J":{"ha":494,"x_min":0,"x_max":422,"o":"m 358 971 q 385 767 376 832 q 403 619 394 701 q 417 451 411 536 q 417 282 422 365 q 387 136 413 199 q 319 36 361 74 q 213 1 276 -1 q 144 19 172 3 q 92 61 115 36 q 54 118 69 86 q 28 182 39 150 q 0 354 4 258 l 92 350 q 94 285 92 331 q 109 195 97 239 q 156 117 121 151 q 229 88 192 82 q 308 138 283 94 q 338 238 333 181 q 340 368 343 296 q 328 513 336 440 q 258 968 307 689 l 358 971 z "},"K":{"ha":708,"x_min":0,"x_max":678,"o":"m 0 971 l 196 968 l 156 940 q 114 908 114 911 l 121 653 l 535 925 l 597 868 l 249 663 l 678 143 l 590 71 l 185 622 l 118 582 l 132 60 q 169 31 133 56 l 207 6 l 4 0 q 38 58 38 57 q 35 494 38 58 q 32 931 32 929 q 0 971 31 931 z "},"L":{"ha":676,"x_min":0,"x_max":622,"o":"m 0 972 l 211 972 q 151 928 160 939 q 140 915 142 918 q 138 876 139 914 q 135 76 136 838 q 553 90 549 86 q 622 171 560 92 l 621 1 l 44 -1 l 39 938 q 0 972 21 953 z "},"M":{"ha":844,"x_min":1,"x_max":771,"o":"m 14 971 l 192 967 l 442 414 l 683 911 l 771 917 l 769 43 l 606 42 q 635 56 621 49 q 674 79 646 61 q 678 757 675 81 l 414 225 l 132 842 q 149 47 146 49 q 171 35 151 43 q 251 1 190 26 l 1 1 q 35 26 18 14 q 58 48 47 38 q 71 64 69 58 q 67 485 71 68 q 63 904 64 903 q 52 919 60 908 q 36 943 44 931 q 14 971 26 957 z "},"N":{"ha":736,"x_min":0,"x_max":663,"o":"m 8 917 l 111 921 l 588 276 q 578 917 579 913 q 564 931 574 921 q 543 950 554 940 l 514 969 l 654 971 l 663 3 l 88 768 q 115 60 114 67 q 131 42 119 53 q 154 22 142 31 q 188 1 169 11 l 0 1 l 39 46 l 8 917 z "},"O":{"ha":888,"x_min":4,"x_max":839,"o":"m 413 974 q 617 931 525 972 q 694 885 657 914 q 763 810 732 856 q 814 702 794 765 q 838 557 833 639 q 804 317 839 419 q 711 144 769 214 q 578 39 653 75 q 426 1 504 3 q 272 29 349 0 q 134 122 194 58 q 39 283 74 185 q 13 518 4 382 q 55 729 18 646 q 140 863 92 813 q 255 942 189 913 q 413 974 321 972 m 721 478 q 710 647 728 576 q 662 768 693 718 q 593 849 631 818 q 513 898 556 881 q 417 917 469 915 q 388 916 410 917 q 338 909 367 915 q 280 887 310 903 q 218 841 250 871 q 163 753 186 811 q 129 610 139 694 q 138 378 114 482 q 207 202 161 275 q 314 91 253 129 q 435 56 375 53 q 510 67 465 56 q 597 121 554 79 q 675 247 640 163 q 721 478 710 331 z "},"P":{"ha":672,"x_min":1,"x_max":618,"o":"m 1 957 q 308 965 172 975 q 422 947 367 960 q 520 912 476 933 q 591 857 564 890 q 618 776 618 824 q 594 672 618 714 q 529 604 569 631 q 439 565 489 578 q 338 547 389 553 q 164 536 286 542 q 111 543 118 536 q 117 560 104 550 q 163 592 129 571 q 350 608 269 589 q 417 629 385 617 q 474 660 450 642 q 510 702 499 678 q 518 760 522 726 q 463 853 507 822 q 362 894 418 883 q 248 902 306 906 q 154 894 190 899 q 183 89 183 90 q 198 74 186 86 q 224 49 210 61 q 260 14 240 32 l 42 4 q 61 21 53 14 q 76 35 69 29 q 83 44 82 42 q 76 886 83 47 l 6 878 l 1 957 z "},"Q":{"ha":867,"x_min":1,"x_max":825,"o":"m 818 467 q 767 232 811 319 q 665 96 724 144 l 772 -11 l 689 -79 l 585 46 q 530 26 556 33 q 483 15 504 18 q 449 12 463 13 q 429 11 435 11 q 388 12 422 11 q 309 23 354 13 q 213 57 264 33 q 117 125 161 81 q 41 240 72 169 q 4 417 10 311 q 35 655 1 551 q 124 827 68 758 q 254 932 181 896 q 404 971 328 968 q 558 944 481 972 q 694 854 635 917 q 790 695 754 792 q 818 467 825 599 m 622 139 q 673 231 651 175 q 704 372 694 288 q 693 600 718 499 q 622 774 668 701 q 515 883 576 846 q 397 918 454 921 q 330 904 367 917 q 244 850 293 892 q 161 726 194 808 q 118 497 128 643 q 132 330 114 400 q 181 211 150 260 q 249 132 211 163 q 322 85 288 101 q 385 63 357 69 q 419 57 413 57 q 469 57 432 54 q 553 83 507 60 l 406 258 l 461 301 l 622 139 z "},"R":{"ha":833,"x_min":0,"x_max":800,"o":"m 800 117 l 713 46 q 575 257 635 164 q 520 336 546 299 q 474 404 494 374 q 432 464 453 439 q 383 454 421 461 q 297 440 346 447 q 175 428 239 432 q 193 101 193 104 q 206 83 193 97 q 235 50 218 68 q 274 10 251 31 l 64 1 q 83 32 75 17 q 97 53 92 44 q 103 65 103 63 q 71 892 103 68 l 8 886 l 0 968 q 145 972 68 971 q 300 971 222 974 q 449 956 378 968 q 576 915 521 944 q 666 838 632 886 q 703 715 700 790 q 670 597 703 642 q 599 528 638 553 q 494 482 553 500 l 800 117 m 169 486 q 382 510 288 489 q 465 537 421 519 q 538 580 510 554 q 583 640 565 606 q 599 721 601 674 q 570 799 593 767 q 516 853 547 832 q 444 885 485 874 q 354 903 404 896 q 147 897 258 911 l 169 486 z "},"S":{"ha":528,"x_min":1,"x_max":476,"o":"m 460 969 l 460 878 q 418 889 443 883 q 372 895 393 894 q 309 888 350 896 q 228 854 268 881 q 149 785 188 828 q 108 663 111 743 q 142 565 108 608 q 213 495 175 522 q 296 442 251 468 q 380 385 340 417 q 447 313 419 354 q 475 213 474 272 q 460 131 476 165 q 415 72 443 96 q 351 33 388 47 q 278 13 315 19 q 74 6 189 -4 l 104 167 q 118 128 113 146 q 131 99 125 113 q 143 78 138 85 q 171 71 147 74 q 225 72 194 68 q 289 87 256 75 q 344 122 322 99 q 371 185 367 146 q 349 282 375 224 q 285 359 319 329 q 214 411 251 389 q 140 452 176 433 q 75 494 104 471 q 26 551 46 518 q 4 635 6 583 q 38 776 1 713 q 137 883 74 839 q 283 949 200 926 q 460 969 365 972 z "},"T":{"ha":764,"x_min":1,"x_max":715,"o":"m 713 969 l 715 811 q 696 843 706 826 q 680 867 689 856 q 664 883 671 879 q 374 882 656 889 q 400 85 400 88 q 431 43 401 76 l 465 0 l 203 1 q 275 49 261 38 q 296 65 289 60 q 283 881 301 72 q 67 878 72 879 l 38 847 q 1 806 21 828 l 3 942 l 713 969 z "},"U":{"ha":750,"x_min":1,"x_max":686,"o":"m 1 971 l 182 967 q 156 931 168 947 q 135 899 144 914 q 125 872 126 883 q 127 698 125 786 q 138 526 129 610 q 163 365 146 442 q 207 228 179 288 q 281 130 235 168 q 390 82 328 92 q 490 128 450 75 q 553 266 531 181 q 578 454 575 351 q 581 649 582 557 q 569 808 579 740 q 544 892 558 876 q 533 903 543 894 q 513 922 524 913 l 485 947 l 582 947 l 678 949 q 683 740 679 851 q 683 518 686 628 q 666 308 679 408 q 619 136 653 208 q 528 28 585 64 q 383 7 471 -8 q 215 89 281 26 q 110 237 150 151 q 53 423 71 322 q 28 618 35 524 q 22 793 22 713 q 18 918 22 874 l 8 950 q 1 971 4 960 z "},"V":{"ha":746,"x_min":4,"x_max":696,"o":"m 4 956 l 210 971 q 178 932 190 949 q 146 886 163 915 q 401 236 146 883 l 604 961 l 696 961 l 404 1 l 4 956 z "},"W":{"ha":938,"x_min":0,"x_max":900,"o":"m 0 956 l 161 956 l 115 918 q 106 901 107 907 q 250 142 106 901 l 468 654 l 671 174 q 767 813 765 783 q 767 844 769 842 q 751 863 764 851 q 725 885 739 874 q 686 910 707 897 l 900 915 q 885 885 893 903 q 871 842 876 868 l 726 10 l 632 8 l 461 464 l 276 6 l 181 3 l 0 956 z "},"X":{"ha":779,"x_min":1,"x_max":747,"o":"m 654 3 l 358 440 l 76 36 l 1 81 l 313 513 l 40 918 l 142 972 l 379 593 l 600 931 l 679 903 l 426 525 l 747 65 l 654 3 z "},"Y":{"ha":764,"x_min":0,"x_max":744,"o":"m 0 971 l 163 964 l 143 949 q 131 936 136 943 q 124 926 125 929 q 360 560 124 924 q 581 904 582 901 q 569 918 578 910 q 551 936 561 926 q 526 960 540 947 l 744 951 l 681 893 l 413 482 l 438 49 l 497 1 l 247 1 q 318 46 304 35 q 335 64 332 57 q 336 89 336 68 q 336 142 336 110 q 335 213 336 174 q 332 292 333 251 q 322 490 326 386 q 160 742 199 686 q 88 847 122 799 q 29 929 54 894 q 0 971 4 964 z "},"Z":{"ha":710,"x_min":1,"x_max":660,"o":"m 624 964 l 142 114 q 569 107 567 106 q 622 149 606 135 q 658 186 640 165 l 660 6 l 1 26 l 490 875 l 139 853 q 94 813 117 840 q 44 760 69 789 l 40 939 l 624 964 z "},"[":{"ha":251,"x_min":1,"x_max":207,"o":"m 178 968 l 178 869 l 86 869 l 100 64 l 207 75 l 207 8 l 49 1 l 1 931 l 178 968 z "},"\\":{"ha":404,"x_min":13,"x_max":354,"o":"m 354 101 l 308 86 l 13 764 l 96 778 l 354 101 z "},"]":{"ha":264,"x_min":1,"x_max":210,"o":"m 43 0 l 42 100 l 129 101 l 107 908 l 4 893 l 1 957 l 149 971 l 210 42 l 43 0 z "},"^":{"ha":299,"x_min":3,"x_max":231,"o":"m 3 704 l 97 907 l 231 754 l 206 738 l 103 863 l 49 685 l 3 704 l 3 704 z "},"_":{"ha":500,"x_min":4,"x_max":432,"o":"m 4 -21 l 432 1 l 428 -72 l 10 -64 l 4 -21 l 4 -21 z "},"`":{"ha":207,"x_min":61,"x_max":154,"o":"m 154 1001 l 140 990 l 61 1069 l 85 1092 l 154 1001 m 154 1001 l 140 990 l 61 1069 l 85 1092 l 154 1001 z "},"a":{"ha":689,"x_min":0,"x_max":667,"o":"m 0 0 l 286 979 l 667 14 l 507 3 l 539 46 l 278 736 l 194 408 l 421 425 l 436 351 l 179 336 l 90 38 l 125 0 l 1 1 l 0 0 z "},"b":{"ha":685,"x_min":0,"x_max":639,"o":"m 1 971 q 80 972 32 971 q 181 970 128 972 q 288 958 233 968 q 387 927 343 947 q 459 872 431 907 q 490 782 488 836 q 458 665 493 714 q 378 585 422 615 q 274 539 325 551 q 451 524 367 550 q 522 488 488 510 q 585 426 556 467 q 626 348 614 386 q 638 263 639 310 q 608 155 636 200 q 535 79 581 110 q 431 31 490 49 q 306 7 372 14 q 171 1 239 0 q 38 10 103 3 q 37 50 38 36 q 36 72 36 64 q 36 81 36 79 q 36 86 36 83 q 72 78 36 86 q 161 67 107 71 q 280 68 215 64 q 399 93 344 72 q 493 159 454 114 q 536 283 532 204 q 510 376 536 340 q 441 435 483 413 q 347 464 399 457 q 253 472 296 471 q 181 472 210 474 q 151 469 151 469 q 151 484 151 471 q 153 513 151 497 q 154 563 153 531 q 283 600 226 575 q 331 626 307 611 q 372 663 354 640 q 398 713 389 685 q 406 778 407 742 q 385 840 404 817 q 338 875 367 863 q 278 892 310 888 q 217 896 246 896 q 151 894 189 896 l 182 33 l 79 39 q 83 892 83 892 q 69 892 82 892 q 40 890 57 892 l 0 888 l 1 971 z "},"c":{"ha":722,"x_min":10,"x_max":657,"o":"m 657 956 l 611 844 q 360 857 469 881 q 269 822 313 846 q 192 752 225 797 q 142 638 160 707 q 129 468 124 568 q 155 290 133 361 q 208 176 176 219 q 278 110 239 132 q 358 83 318 89 q 569 122 453 69 l 617 15 q 307 26 442 -12 q 195 75 249 42 q 100 163 142 108 q 34 299 58 217 q 14 494 10 381 q 72 703 19 611 q 213 858 125 796 q 415 945 300 919 q 657 956 531 971 z "},"d":{"ha":794,"x_min":3,"x_max":744,"o":"m 3 943 q 324 949 176 975 q 449 913 386 938 q 565 844 511 889 q 660 733 619 800 q 722 569 701 665 q 727 353 744 443 q 666 199 710 263 q 559 97 622 135 q 428 38 496 58 q 44 11 264 -12 l 42 89 q 338 90 210 61 q 444 131 393 103 q 535 206 496 158 q 596 324 574 253 q 614 496 618 394 q 588 639 610 579 q 533 742 565 699 q 460 810 500 785 q 378 851 421 836 q 164 878 282 886 l 188 56 l 96 69 l 96 874 l 11 861 l 3 943 z "},"e":{"ha":694,"x_min":0,"x_max":643,"o":"m 0 972 l 643 963 l 642 799 q 588 843 613 822 q 535 886 563 864 l 158 890 l 161 557 l 424 569 l 424 481 l 163 481 l 172 79 q 486 86 485 85 q 601 161 490 88 l 601 3 l 33 3 l 33 79 l 74 76 l 74 893 l 0 893 l 0 972 z "},"f":{"ha":696,"x_min":0,"x_max":654,"o":"m 0 969 l 654 967 l 650 782 q 618 829 633 807 q 592 865 606 847 q 569 885 579 882 q 543 887 565 886 q 142 883 521 888 l 149 553 l 396 561 l 393 474 l 150 475 q 164 75 163 79 q 257 1 167 68 l 14 1 q 68 57 67 51 q 63 477 68 60 q 61 888 57 894 l 3 888 l 0 969 z "},"g":{"ha":756,"x_min":11,"x_max":683,"o":"m 663 963 l 667 800 l 635 840 q 610 870 622 857 q 592 885 599 883 q 431 871 510 893 q 287 799 353 849 q 180 672 221 749 q 133 493 139 594 q 151 314 126 396 q 234 175 175 232 q 378 91 293 118 q 581 83 463 64 l 544 471 l 292 460 l 288 542 l 617 547 l 683 24 q 339 19 493 -14 q 212 65 274 33 q 105 151 150 96 q 35 291 60 207 q 21 496 11 375 q 60 647 25 578 q 147 774 94 715 q 265 872 199 833 q 401 935 331 911 q 539 964 471 958 q 663 963 607 969 z "},"h":{"ha":725,"x_min":0,"x_max":644,"o":"m 504 4 q 542 60 524 28 q 536 317 543 171 l 93 299 l 97 1 l 0 1 l 1 967 l 153 972 q 85 899 150 975 l 86 371 l 532 382 l 506 957 l 606 963 l 644 3 l 504 4 z "},"i":{"ha":299,"x_min":3,"x_max":235,"o":"m 3 971 l 192 971 q 169 950 179 960 q 154 933 163 942 q 144 919 146 925 q 147 499 144 918 q 151 78 150 79 q 235 3 154 74 l 6 0 q 51 51 44 38 q 58 480 54 57 q 61 907 61 903 q 49 924 57 914 q 3 971 40 935 z "},"j":{"ha":494,"x_min":0,"x_max":422,"o":"m 358 971 q 385 767 376 832 q 403 619 394 701 q 417 451 411 536 q 417 282 422 365 q 387 136 413 199 q 319 36 361 74 q 213 1 276 -1 q 144 19 172 3 q 92 61 115 36 q 54 118 69 86 q 28 182 39 150 q 0 354 4 258 l 92 350 q 94 285 92 331 q 109 195 97 239 q 156 117 121 151 q 229 88 192 82 q 308 138 283 94 q 338 238 333 181 q 340 368 343 296 q 328 513 336 440 q 258 968 307 689 l 358 971 z "},"k":{"ha":708,"x_min":0,"x_max":678,"o":"m 0 971 l 196 968 l 156 940 q 114 908 114 911 l 121 653 l 535 925 l 597 868 l 249 663 l 678 143 l 590 71 l 185 622 l 118 582 l 132 60 q 169 31 133 56 l 207 6 l 4 0 q 38 58 38 57 q 35 494 38 58 q 32 931 32 929 q 0 971 31 931 z "},"l":{"ha":676,"x_min":0,"x_max":622,"o":"m 0 972 l 211 972 q 151 928 160 939 q 140 915 142 918 q 138 876 139 914 q 135 76 136 838 q 553 90 549 86 q 622 171 560 92 l 621 1 l 44 -1 l 39 938 q 0 972 21 953 z "},"m":{"ha":847,"x_min":1,"x_max":771,"o":"m 14 971 l 192 967 l 442 414 l 683 911 l 771 917 l 769 43 l 606 42 q 635 56 621 49 q 674 79 646 61 q 678 757 675 81 l 414 225 l 132 842 q 149 47 146 49 q 171 35 151 43 q 251 1 190 26 l 1 1 q 35 26 18 14 q 58 48 47 38 q 71 64 69 58 q 67 485 71 68 q 63 904 64 903 q 52 919 60 908 q 36 943 44 931 q 14 971 26 957 z "},"n":{"ha":736,"x_min":0,"x_max":663,"o":"m 8 917 l 114 917 l 588 276 q 578 917 579 913 q 564 931 574 921 q 543 950 554 940 l 514 969 l 654 971 l 663 3 l 88 768 q 115 60 114 67 q 131 42 119 53 q 154 22 142 31 q 188 1 169 11 l 0 1 l 39 46 l 8 917 z "},"o":{"ha":888,"x_min":4,"x_max":839,"o":"m 413 974 q 617 931 525 972 q 694 885 657 914 q 763 810 732 856 q 814 702 794 765 q 838 557 833 639 q 804 317 839 419 q 711 144 769 214 q 578 39 653 75 q 426 1 504 3 q 272 29 349 0 q 134 122 194 58 q 39 283 74 185 q 13 518 4 382 q 55 729 18 646 q 140 863 92 813 q 255 942 189 913 q 413 974 321 972 m 721 478 q 710 647 728 576 q 662 768 693 718 q 593 849 631 818 q 513 898 556 881 q 417 917 469 915 q 388 916 410 917 q 338 909 367 915 q 280 887 310 903 q 218 841 250 871 q 163 753 186 811 q 129 610 139 694 q 138 378 114 482 q 207 202 161 275 q 314 91 253 129 q 435 56 375 53 q 510 67 465 56 q 597 121 554 79 q 675 247 640 163 q 721 478 710 331 z "},"p":{"ha":672,"x_min":1,"x_max":618,"o":"m 1 957 q 308 965 172 975 q 422 947 367 960 q 520 912 476 933 q 591 857 564 890 q 618 776 618 824 q 594 672 618 714 q 529 604 569 631 q 439 565 489 578 q 338 547 389 553 q 164 536 286 542 q 111 543 118 536 q 117 560 104 550 q 163 592 129 571 q 350 608 269 589 q 417 629 385 617 q 474 660 450 642 q 510 702 499 678 q 518 760 522 726 q 463 853 507 822 q 362 894 418 883 q 248 902 306 906 q 154 894 190 899 q 183 89 183 90 q 198 74 186 86 q 224 49 210 61 q 260 14 240 32 l 42 4 q 61 21 53 14 q 76 35 69 29 q 83 44 82 42 q 76 886 83 47 l 6 878 l 1 957 z "},"q":{"ha":867,"x_min":1,"x_max":825,"o":"m 818 467 q 767 232 811 319 q 665 96 724 144 l 772 -11 l 689 -79 l 585 46 q 530 26 556 33 q 483 15 504 18 q 449 12 463 13 q 429 11 435 11 q 388 12 422 11 q 309 23 354 13 q 213 57 264 33 q 117 125 161 81 q 41 240 72 169 q 4 417 10 311 q 35 655 1 551 q 124 827 68 758 q 254 932 181 896 q 404 971 328 968 q 558 944 481 972 q 694 854 635 917 q 790 695 754 792 q 818 467 825 599 m 622 139 q 673 231 651 175 q 704 372 694 288 q 693 600 718 499 q 622 774 668 701 q 515 883 576 846 q 397 918 454 921 q 330 904 367 917 q 244 850 293 892 q 161 726 194 808 q 118 497 128 643 q 132 330 114 400 q 181 211 150 260 q 249 132 211 163 q 322 85 288 101 q 385 63 357 69 q 419 57 413 57 q 469 57 432 54 q 553 83 507 60 l 406 258 l 461 301 l 622 139 z "},"r":{"ha":833,"x_min":0,"x_max":800,"o":"m 800 117 l 713 46 q 575 257 635 164 q 520 336 546 299 q 474 404 494 374 q 432 464 453 439 q 383 454 421 461 q 297 440 346 447 q 175 428 239 432 q 193 101 193 104 q 206 83 193 97 q 235 50 218 68 q 274 10 251 31 l 64 1 q 83 32 75 17 q 97 53 92 44 q 103 65 103 63 q 71 892 103 68 l 8 886 l 0 968 q 145 972 68 971 q 300 971 222 974 q 449 956 378 968 q 576 915 521 944 q 666 838 632 886 q 703 715 700 790 q 670 597 703 642 q 599 528 638 553 q 494 482 553 500 l 800 117 m 169 486 q 382 510 288 489 q 465 537 421 519 q 538 580 510 554 q 583 640 565 606 q 599 721 601 674 q 570 799 593 767 q 516 853 547 832 q 444 885 485 874 q 354 903 404 896 q 147 897 258 911 l 169 486 z "},"s":{"ha":528,"x_min":1,"x_max":476,"o":"m 460 969 l 460 878 q 418 889 443 883 q 372 895 393 894 q 309 888 350 896 q 228 854 268 881 q 149 785 188 828 q 108 663 111 743 q 142 565 108 608 q 213 495 175 522 q 296 442 251 468 q 380 385 340 417 q 447 313 419 354 q 475 213 474 272 q 460 131 476 165 q 415 72 443 96 q 351 33 388 47 q 278 13 315 19 q 74 6 189 -4 l 104 167 q 118 128 113 146 q 131 99 125 113 q 143 78 138 85 q 171 71 147 74 q 225 72 194 68 q 289 87 256 75 q 344 122 322 99 q 371 185 367 146 q 349 282 375 224 q 285 359 319 329 q 214 411 251 389 q 140 452 176 433 q 75 494 104 471 q 26 551 46 518 q 4 635 6 583 q 38 776 1 713 q 137 883 74 839 q 283 949 200 926 q 460 969 365 972 z "},"t":{"ha":764,"x_min":1,"x_max":715,"o":"m 713 969 l 715 811 q 696 843 706 826 q 680 867 689 856 q 664 883 671 879 q 374 882 656 889 q 400 85 400 88 q 431 43 401 76 l 465 0 l 203 1 q 275 49 261 38 q 296 65 289 60 q 283 881 301 72 q 67 878 72 879 l 38 847 q 1 806 21 828 l 3 942 l 713 969 z "},"u":{"ha":750,"x_min":1,"x_max":686,"o":"m 1 971 l 182 967 q 156 931 168 947 q 135 899 144 914 q 125 872 126 883 q 127 698 125 786 q 138 526 129 610 q 163 365 146 442 q 207 228 179 288 q 281 130 235 168 q 390 82 328 92 q 490 128 450 75 q 553 266 531 181 q 578 454 575 351 q 581 649 582 557 q 569 808 579 740 q 544 892 558 876 q 533 903 543 894 q 513 922 524 913 l 485 947 l 582 947 l 678 949 q 683 740 679 851 q 683 518 686 628 q 666 308 679 408 q 619 136 653 208 q 528 28 585 64 q 383 7 471 -8 q 215 89 281 26 q 110 237 150 151 q 53 423 71 322 q 28 618 35 524 q 22 793 22 713 q 18 918 22 874 l 8 950 q 1 971 4 960 z "},"v":{"ha":746,"x_min":4,"x_max":696,"o":"m 4 956 l 210 971 q 178 932 190 949 q 146 886 163 915 q 401 236 146 883 l 604 961 l 696 961 l 404 1 l 4 956 z "},"w":{"ha":939,"x_min":0,"x_max":900,"o":"m 0 956 l 161 956 l 115 918 q 106 901 107 907 q 250 142 106 901 l 468 654 l 671 174 q 767 813 765 783 q 767 844 769 842 q 751 863 764 851 q 725 885 739 874 q 686 910 707 897 l 900 915 q 885 885 893 903 q 871 842 876 868 l 726 10 l 632 8 l 461 464 l 276 6 l 181 3 l 0 956 z "},"x":{"ha":779,"x_min":1,"x_max":747,"o":"m 654 3 l 358 440 l 76 36 l 1 81 l 313 513 l 40 918 l 142 972 l 379 593 l 600 931 l 679 903 l 426 525 l 747 65 l 654 3 z "},"y":{"ha":764,"x_min":0,"x_max":744,"o":"m 0 971 l 163 964 l 143 949 q 131 936 136 943 q 124 926 125 929 q 360 560 124 924 q 581 904 582 901 q 569 918 578 910 q 551 936 561 926 q 526 960 540 947 l 744 951 l 681 893 l 413 482 l 438 49 l 497 1 l 247 1 q 318 46 304 35 q 335 64 332 57 q 336 89 336 68 q 336 142 336 110 q 335 213 336 174 q 332 292 333 251 q 322 490 326 386 q 160 742 199 686 q 88 847 122 799 q 29 929 54 894 q 0 971 4 964 z "},"z":{"ha":710,"x_min":1,"x_max":660,"o":"m 624 964 l 142 114 q 569 107 567 106 q 622 149 606 135 q 658 186 640 165 l 660 6 l 1 26 l 490 875 l 139 853 q 94 813 113 838 q 44 760 69 789 l 40 939 l 624 964 z "},"{":{"ha":346,"x_min":0,"x_max":286,"o":"m 203 968 q 206 953 204 965 q 211 924 208 940 l 217 879 q 142 867 175 879 q 90 833 114 856 q 67 764 67 810 q 78 676 67 718 q 106 599 90 635 q 133 535 121 564 q 142 489 144 507 q 122 438 139 453 q 97 417 106 422 q 105 410 100 411 q 114 403 110 408 q 122 385 118 397 q 131 347 126 372 q 132 302 133 329 q 131 243 131 275 q 135 180 131 211 q 156 126 140 149 q 203 92 172 103 q 285 93 235 82 l 286 10 q 196 6 238 -3 q 126 40 160 13 q 79 136 92 68 q 79 225 75 185 q 81 298 83 265 q 63 359 79 331 q 1 413 47 388 q 54 449 39 422 q 69 513 69 476 q 57 590 68 549 q 33 668 46 631 q 10 738 19 706 q 1 789 0 771 q 7 838 1 807 q 33 899 13 869 q 94 951 54 929 q 203 968 135 972 z "},"|":{"ha":207,"x_min":54,"x_max":136,"o":"m 54 914 l 136 907 l 100 94 l 54 94 l 54 914 z "},"}":{"ha":347,"x_min":1,"x_max":276,"o":"m 82 1 q 78 17 79 4 q 74 47 76 31 q 68 90 71 67 q 140 103 108 90 q 190 137 168 114 q 213 206 211 160 q 202 293 214 251 q 176 370 190 335 q 149 433 161 406 q 139 479 138 460 q 147 510 140 497 q 160 531 153 522 q 173 543 167 539 q 183 551 179 547 q 176 558 181 556 q 168 565 172 560 q 159 583 164 571 q 150 619 154 594 q 149 665 147 638 q 151 725 151 693 q 147 788 151 757 q 126 842 142 819 q 81 874 111 864 q 3 874 51 883 l 1 957 q 89 960 49 968 q 156 925 124 953 q 201 832 188 897 q 201 743 206 783 q 199 669 197 703 q 215 608 200 636 q 275 556 231 579 q 224 518 238 544 q 210 456 210 492 q 222 380 211 421 q 244 301 232 339 q 267 231 257 263 q 275 179 276 199 q 269 131 275 163 q 244 69 264 99 q 185 18 224 39 q 82 1 147 -3 z "},"~":{"ha":375,"x_min":0,"x_max":310,"o":"m 0 379 q 44 429 21 407 q 87 465 64 449 q 129 483 110 481 q 162 473 149 485 q 185 445 175 461 q 206 417 196 429 q 229 404 217 404 q 244 421 239 404 q 254 458 250 438 q 261 514 258 483 l 308 501 q 303 479 310 501 q 285 431 296 457 q 259 382 274 404 q 231 360 244 360 q 197 369 208 360 q 178 390 186 379 q 163 412 171 401 q 136 422 154 422 q 99 412 117 424 q 69 385 82 400 q 42 344 54 368 l 0 379 z "},"¡":{"ha":258,"x_min":18,"x_max":197,"o":"m 115 751 l 174 742 l 157 25 l 18 38 l 115 751 m 151 833 q 110 845 129 831 q 86 888 90 860 q 94 933 82 913 q 129 960 107 954 q 169 948 151 963 q 193 906 188 933 q 185 860 197 881 q 151 833 172 839 z "},"¢":{"ha":415,"x_min":1,"x_max":411,"o":"m 203 874 q 144 899 169 874 q 119 958 119 924 q 144 1023 119 997 q 203 1049 169 1049 q 269 1023 243 1049 q 294 958 294 997 q 269 899 294 924 q 203 874 243 874 m 294 854 q 342 844 321 854 q 379 818 364 835 q 403 781 394 801 q 411 738 411 760 l 411 471 q 399 442 411 451 q 372 432 386 432 q 345 442 357 432 q 333 471 333 451 l 333 718 l 314 718 l 314 49 q 299 9 314 22 q 265 -4 283 -4 q 232 9 247 -4 q 217 49 217 22 l 217 439 l 197 439 l 197 49 q 181 9 197 22 q 145 -4 165 -4 q 109 9 125 -4 q 93 49 93 22 l 93 718 l 74 718 l 74 471 q 63 442 74 451 q 38 432 51 432 q 13 442 24 432 q 1 471 1 451 l 1 738 q 33 820 1 786 q 113 854 64 854 l 294 854 z "},"£":{"ha":569,"x_min":1,"x_max":501,"o":"m 450 197 q 465 206 456 197 q 482 225 475 214 q 501 251 490 238 l 501 115 l 74 115 l 63 171 l 118 172 q 110 238 115 197 q 98 333 106 275 q 83 475 90 390 l 4 472 l 1 511 l 79 518 q 90 711 68 642 q 149 813 113 781 q 231 849 185 846 q 318 844 278 853 q 385 821 358 835 q 413 806 413 807 l 367 696 q 357 718 361 706 q 332 754 346 735 q 235 778 272 789 q 177 732 197 768 q 151 639 157 696 q 150 519 144 582 l 235 529 l 239 476 l 153 475 q 160 365 156 418 q 168 271 164 311 q 181 176 175 222 q 308 185 250 179 q 357 188 333 186 q 400 191 381 189 q 433 194 419 193 q 450 197 446 196 z "},"¨":{"ha":276,"x_min":0,"x_max":229,"o":"m 75 694 q 47 677 64 678 q 17 686 31 676 q 2 715 4 697 q 10 747 0 732 q 35 763 19 760 q 64 756 51 765 q 80 726 78 743 q 75 694 82 708 m 167 729 q 190 744 176 743 q 214 736 203 744 q 227 710 225 725 q 222 682 229 696 q 199 667 213 669 q 172 676 186 665 q 160 701 163 685 q 167 729 158 717 z "},"©":{"ha":396,"x_min":-6,"x_max":333,"o":"m 226 238 l 226 214 q 167 221 193 224 q 122 206 143 218 q 93 160 100 193 q 91 130 90 147 q 103 98 92 113 q 140 75 115 83 q 211 71 165 67 q 213 63 211 67 q 213 59 213 60 q 214 57 214 58 l 214 54 q 165 54 193 51 q 113 70 136 57 q 78 110 90 83 q 78 182 67 136 q 113 226 89 214 q 163 242 138 239 q 226 238 192 244 m 168 290 q 216 285 189 290 q 269 263 243 279 q 313 219 294 247 q 333 146 331 192 q 316 78 332 106 q 275 33 300 50 q 220 8 250 15 q 163 0 190 0 q 110 5 140 0 q 54 26 81 10 q 11 70 28 42 q -3 144 -6 99 q 19 219 0 190 q 65 263 39 247 q 119 285 92 279 q 168 290 147 290 m 161 17 q 210 23 183 15 q 260 48 238 31 q 298 92 283 65 q 311 158 313 119 q 292 218 310 194 q 253 256 275 242 q 209 275 231 269 q 178 281 188 281 q 63 244 110 285 q 17 133 17 203 q 31 79 17 101 q 66 43 44 57 q 113 23 88 29 q 161 17 138 17 z "},"¬":{"ha":371,"x_min":0,"x_max":300,"o":"m 0 490 l 283 488 l 300 411 l 264 410 l 263 463 l 1 456 l 0 490 z "},"®":{"ha":368,"x_min":-6,"x_max":300,"o":"m 94 224 q 115 225 96 224 q 157 223 135 226 q 198 210 179 219 q 215 179 217 200 q 201 149 214 160 q 174 133 189 139 q 132 125 156 128 l 199 50 l 168 50 l 113 122 l 111 49 l 97 50 l 94 224 m 111 142 q 151 143 133 139 q 180 153 167 146 q 193 179 193 161 q 180 202 193 194 q 151 213 167 210 q 111 213 133 215 l 111 142 m 151 265 q 194 260 169 265 q 242 240 219 254 q 281 201 265 226 q 300 135 297 176 q 284 73 299 99 q 247 32 269 47 q 197 10 224 17 q 146 3 171 3 q 99 8 126 3 q 49 26 72 13 q 10 66 25 40 q -3 133 -6 92 q 17 200 0 174 q 58 241 35 226 q 108 260 82 256 q 151 265 133 265 m 144 18 q 190 23 165 17 q 235 45 214 29 q 268 86 256 61 q 279 146 281 111 q 262 199 278 178 q 226 233 246 221 q 187 251 206 246 q 160 257 168 257 q 56 223 97 260 q 14 124 14 186 q 26 74 14 94 q 58 42 39 54 q 101 24 78 29 q 144 18 124 18 z "},"±":{"ha":1157,"x_min":0,"x_max":0,"o":""},"´":{"ha":242,"x_min":47,"x_max":186,"o":"m 48 999 l 68 982 l 187 1102 l 151 1135 l 48 999 m 48 999 l 68 982 l 187 1102 l 151 1135 l 48 999 z "},"¸":{"ha":188,"x_min":-3,"x_max":126,"o":"m 14 93 q 21 91 13 90 q 39 92 29 92 q 64 93 50 92 q 56 79 60 86 q 51 66 53 72 q 56 56 50 60 q 68 50 60 51 q 85 47 76 49 q 101 42 93 46 q 115 28 110 38 q 98 -17 126 7 q -3 -42 69 -42 q -3 -24 -3 -42 l -3 -6 q 43 -8 22 -10 q 74 -1 60 -7 q 90 19 89 4 q 83 35 92 32 q 64 37 75 38 q 42 35 53 36 q 25 42 31 35 q 17 57 19 47 q 15 75 15 67 q 14 89 14 83 q 14 93 14 94 z "},"¿":{"ha":714,"x_min":0,"x_max":672,"o":"m 24 125 q 1 208 0 168 q 19 283 1 249 q 66 347 36 317 q 132 403 96 378 q 333 507 214 461 l 264 713 l 347 732 l 411 464 q 240 390 310 436 q 183 349 208 372 q 141 298 157 326 q 124 235 125 269 q 140 164 122 201 q 203 96 163 115 q 296 73 243 76 q 424 94 349 69 q 590 213 499 119 l 672 131 q 599 84 647 110 q 489 35 550 58 q 360 4 428 11 q 227 4 292 -3 q 110 40 163 11 q 24 125 57 68 m 267 801 q 239 829 249 807 q 236 878 229 851 q 262 917 243 903 q 300 926 281 932 q 328 900 318 922 q 331 851 338 878 q 305 812 324 826 q 267 801 286 797 z "},"À":{"ha":701,"x_min":0,"x_max":667,"o":"m 0 0 l 286 928 l 667 13 l 507 3 l 539 43 l 278 697 l 194 388 l 421 403 l 436 333 l 179 318 l 90 36 l 125 0 l 1 1 l 0 0 m 326 967 l 306 950 l 186 1069 l 222 1103 l 326 967 m 326 967 l 306 950 l 186 1069 l 222 1103 l 326 967 z "},"Á":{"ha":672,"x_min":0,"x_max":629,"o":"m 0 0 l 271 925 l 629 13 l 479 3 l 510 43 l 263 696 l 183 386 l 397 401 l 413 332 l 169 318 l 85 36 l 118 0 l 1 1 l 0 0 m 314 1614 l 350 1581 l 231 1461 l 210 1478 l 314 1614 m 314 1614 l 350 1581 l 231 1461 l 210 1478 l 314 1614 m 353 1100 l 388 1067 l 269 947 l 249 964 l 353 1100 m 353 1100 l 388 1067 l 269 947 l 249 964 l 353 1100 z "},"Â":{"ha":675,"x_min":0,"x_max":629,"o":"m 176 949 l 147 946 q 148 958 146 946 q 160 990 150 969 q 197 1031 171 1011 q 253 1047 224 1047 q 300 1041 282 1047 q 333 1028 318 1035 q 374 992 363 1008 q 392 961 386 975 l 361 953 q 328 996 347 978 q 283 1019 308 1014 q 235 1021 257 1025 q 201 1005 214 1017 q 183 979 189 993 q 176 949 175 960 m 0 0 l 271 925 l 629 13 l 479 3 l 510 43 l 263 696 l 183 386 l 397 401 l 413 332 l 169 318 l 85 36 l 118 0 l 1 1 l 0 0 z "},"Ã":{"ha":689,"x_min":0,"x_max":667,"o":"m 0 0 l 286 979 l 667 14 l 507 3 l 539 46 l 278 736 l 194 408 l 421 425 l 436 351 l 179 336 l 90 38 l 125 0 l 1 1 l 0 0 m 124 956 q 171 1001 147 979 q 212 1033 189 1018 q 254 1054 235 1049 q 285 1043 274 1056 q 308 1014 297 1031 q 329 985 319 997 q 351 974 339 974 q 367 990 361 974 q 378 1028 374 1006 q 386 1081 385 1049 l 424 1072 q 401 1006 413 1033 q 381 959 393 979 q 357 939 369 939 q 324 949 335 938 q 304 976 313 960 q 286 1007 296 992 q 258 1022 276 1022 q 223 1007 239 1022 q 192 974 207 992 q 158 928 174 956 l 124 956 z "},"Ä":{"ha":701,"x_min":0,"x_max":667,"o":"m 0 0 l 286 928 l 667 13 l 507 3 l 539 43 l 278 697 l 194 388 l 421 403 l 436 333 l 179 318 l 90 36 l 125 0 l 1 1 l 0 0 m 254 999 q 226 981 243 982 q 196 990 210 981 q 181 1019 183 1001 q 189 1051 179 1036 q 215 1067 199 1064 q 243 1060 231 1069 q 259 1030 257 1047 q 254 999 261 1013 m 346 1033 q 369 1048 356 1047 q 393 1040 382 1049 q 406 1015 404 1029 q 401 986 408 1000 q 378 972 392 974 q 351 981 365 969 q 340 1005 342 989 q 346 1033 338 1021 z "},"Å":{"ha":701,"x_min":0,"x_max":667,"o":"m 290 1063 q 315 1060 301 1063 q 341 1049 328 1057 q 363 1028 354 1042 q 374 990 372 1014 q 365 956 372 969 q 339 929 357 942 q 285 918 321 917 q 235 928 250 919 q 211 952 219 938 q 204 989 203 967 q 215 1027 206 1013 q 238 1049 225 1042 q 265 1060 251 1057 q 290 1063 279 1063 m 288 933 q 308 936 297 933 q 330 947 319 939 q 346 965 340 954 q 351 993 351 976 q 343 1019 350 1010 q 327 1034 336 1028 q 308 1042 318 1040 q 294 1044 299 1044 q 247 1029 267 1046 q 226 982 226 1013 q 233 960 226 969 q 248 945 239 951 q 267 936 257 939 q 288 933 278 933 m 0 0 l 286 928 l 667 13 l 507 3 l 539 43 l 278 697 l 194 388 l 421 403 l 436 333 l 179 318 l 90 36 l 125 0 l 1 1 l 0 0 z "},"Æ":{"ha":1028,"x_min":-1,"x_max":961,"o":"m 385 974 l 961 961 q 960 783 960 782 q 942 802 960 785 q 903 840 925 819 q 862 878 881 861 q 838 896 843 894 q 539 883 835 896 l 549 507 l 786 529 l 786 438 l 549 438 l 556 76 q 819 85 817 83 q 839 99 822 88 q 872 124 856 111 l 921 158 l 921 1 l 444 1 l 444 78 l 481 76 l 482 881 l 386 881 l 385 974 m -1 1 l 451 924 l 511 885 l 507 1 l 363 1 l 401 21 q 428 35 415 28 q 442 44 440 42 q 442 78 442 44 q 446 167 443 113 q 451 292 449 221 q 458 434 454 363 q 464 572 461 506 q 469 687 467 638 q 473 760 472 736 q 474 771 474 783 l 324 481 l 475 489 l 494 440 l 306 439 l 211 242 q 176 170 193 206 q 146 106 158 135 q 126 60 133 78 q 118 42 118 42 q 128 32 118 38 q 154 19 139 26 q 192 1 171 11 l -1 1 z "},"Ç":{"ha":711,"x_min":10,"x_max":657,"o":"m 657 956 l 611 844 q 360 857 469 881 q 269 822 313 846 q 192 752 225 797 q 142 638 160 707 q 129 468 124 568 q 155 290 133 361 q 208 176 176 219 q 278 110 239 132 q 358 83 318 89 q 569 122 453 69 l 617 15 q 307 26 442 -12 q 195 75 249 42 q 100 163 142 108 q 34 299 58 217 q 14 494 10 381 q 72 703 19 611 q 213 858 125 796 q 415 945 300 919 q 657 956 531 971 m 325 32 q 334 30 323 29 q 355 31 344 31 q 386 32 369 31 q 375 16 380 24 q 370 0 372 7 q 375 -13 369 -8 q 391 -19 380 -18 q 411 -23 401 -21 q 431 -29 421 -24 q 448 -46 441 -34 q 427 -100 461 -71 q 305 -129 392 -129 q 305 -107 305 -129 l 305 -86 q 360 -89 335 -91 q 398 -81 380 -87 q 417 -56 416 -74 q 409 -38 419 -41 q 386 -35 399 -34 q 359 -37 372 -36 q 339 -29 345 -38 q 329 -11 332 -23 q 326 11 327 1 q 325 27 325 21 q 325 32 325 34 z "},"È":{"ha":706,"x_min":0,"x_max":642,"o":"m 0 924 l 642 914 l 640 758 q 586 801 611 781 q 533 842 561 821 l 158 846 l 161 529 l 422 542 l 422 457 l 163 457 l 172 75 q 485 82 483 81 q 600 153 489 83 l 600 3 l 33 3 l 33 75 l 74 72 l 74 849 l 0 849 l 0 924 m 361 964 l 340 947 l 221 1067 l 257 1100 l 361 964 m 361 964 l 340 947 l 221 1067 l 257 1100 l 361 964 z "},"É":{"ha":706,"x_min":0,"x_max":642,"o":"m 0 924 l 642 914 l 640 758 q 586 801 611 781 q 533 842 561 821 l 158 846 l 161 529 l 422 542 l 422 457 l 163 457 l 172 75 q 485 82 483 81 q 600 153 489 83 l 600 3 l 33 3 l 33 75 l 74 72 l 74 849 l 0 849 l 0 924 m 368 1107 l 403 1074 l 285 954 l 264 971 l 368 1107 m 368 1107 l 403 1074 l 285 954 l 264 971 l 368 1107 z "},"Ê":{"ha":706,"x_min":0,"x_max":642,"o":"m 289 1101 l 438 996 l 407 986 l 294 1072 l 235 950 l 185 961 l 289 1101 m 0 924 l 642 914 l 640 758 q 586 801 611 781 q 533 842 561 821 l 158 846 l 161 529 l 422 542 l 422 457 l 163 457 l 172 75 q 485 82 483 81 q 600 153 489 83 l 600 3 l 33 3 l 33 75 l 74 72 l 74 849 l 0 849 l 0 924 z "},"Ë":{"ha":706,"x_min":0,"x_max":642,"o":"m 0 924 l 642 914 l 640 758 q 586 801 611 781 q 533 842 561 821 l 158 846 l 161 529 l 422 542 l 422 457 l 163 457 l 172 75 q 485 82 483 81 q 600 153 489 83 l 600 3 l 33 3 l 33 75 l 74 72 l 74 849 l 0 849 l 0 924 m 285 986 q 257 969 274 969 q 226 978 240 968 q 212 1006 214 989 q 219 1039 210 1024 q 245 1054 229 1051 q 274 1047 261 1057 q 290 1017 288 1035 q 285 986 292 1000 m 376 1021 q 399 1035 386 1035 q 424 1028 413 1036 q 437 1002 435 1017 q 432 974 439 988 q 409 959 422 961 q 382 968 396 957 q 370 992 372 976 q 376 1021 368 1008 z "},"Ì":{"ha":286,"x_min":1,"x_max":226,"o":"m 3 938 l 186 938 q 164 918 174 927 q 149 901 157 909 q 140 888 141 893 q 143 482 140 887 q 147 75 145 76 q 227 3 149 71 l 5 0 q 50 50 43 36 q 56 463 52 55 q 59 876 59 872 q 47 893 55 883 q 3 938 39 903 m 111 981 l 98 971 l 29 1041 l 50 1061 l 111 981 m 111 981 l 98 971 l 29 1041 l 50 1061 l 111 981 z "},"Í":{"ha":289,"x_min":1,"x_max":231,"o":"m 3 938 l 189 938 q 167 918 177 927 q 152 901 160 909 q 143 888 144 893 q 145 482 143 887 q 149 75 148 76 q 232 3 152 71 l 5 0 q 51 50 44 36 q 57 463 53 55 q 60 876 60 872 q 48 893 56 883 q 3 938 40 903 m 57 972 l 70 962 l 139 1031 l 119 1051 l 57 972 m 57 972 l 70 962 l 139 1031 l 119 1051 l 57 972 z "},"Î":{"ha":289,"x_min":0,"x_max":229,"o":"m 85 1074 l 199 992 l 175 985 l 89 1051 l 42 957 l 4 967 l 85 1074 m 0 938 l 186 938 q 164 918 174 926 q 150 901 158 910 q 140 888 142 893 q 143 481 140 886 q 147 75 146 76 q 229 3 150 71 l 3 0 q 49 50 42 36 q 54 464 51 56 q 57 876 57 872 q 45 893 53 883 q 0 938 38 903 z "},"Ï":{"ha":289,"x_min":1,"x_max":232,"o":"m 4 938 l 191 938 q 169 918 178 927 q 154 901 162 909 q 144 888 145 893 q 147 482 144 887 q 151 75 149 76 q 233 3 154 71 l 7 0 q 52 50 45 36 q 58 463 55 55 q 62 876 62 872 q 49 893 58 883 q 4 938 41 903 m 65 982 q 41 969 56 969 q 16 976 27 968 q 3 999 5 985 q 10 1025 1 1013 q 31 1037 18 1035 q 56 1032 45 1039 q 69 1008 67 1021 q 65 982 71 994 m 143 1010 q 162 1022 151 1021 q 183 1016 173 1023 q 194 995 192 1007 q 190 972 196 984 q 171 961 182 962 q 148 968 159 959 q 138 987 139 975 q 143 1010 136 1000 z "},"Ð":{"ha":803,"x_min":0,"x_max":753,"o":"m 3 954 q 328 960 179 986 q 454 924 390 949 q 572 853 518 899 q 669 740 626 808 q 731 576 711 672 q 735 356 753 449 q 674 200 718 264 q 566 97 631 136 q 432 38 501 58 q 44 11 268 -12 l 43 90 q 342 92 213 63 q 449 132 397 104 q 541 208 501 160 q 603 327 581 256 q 621 501 625 399 q 591 658 614 592 q 534 769 568 724 q 459 842 500 814 q 375 885 418 869 q 156 906 276 921 l 190 56 l 97 69 l 94 896 l 11 872 l 3 954 m 0 519 l 344 546 l 340 456 l 4 467 l 0 519 z "},"Ñ":{"ha":724,"x_min":-1,"x_max":661,"o":"m 7 917 l 110 921 l 586 276 q 576 917 578 913 q 563 931 572 921 q 542 950 553 940 l 513 969 l 653 971 l 661 3 l 86 768 q 114 60 113 67 q 129 42 118 53 q 153 22 140 31 q 186 1 168 11 l -1 1 l 38 46 l 7 917 m 160 986 q 203 1030 181 1009 q 240 1060 219 1045 q 278 1080 260 1074 q 307 1069 296 1082 q 327 1041 317 1057 q 346 1014 337 1026 q 367 1003 355 1003 q 380 1018 374 1003 q 390 1055 386 1034 q 398 1105 396 1074 l 432 1097 q 412 1034 422 1061 q 393 989 404 1009 q 371 970 382 970 q 341 979 351 968 q 323 1005 331 989 q 307 1035 315 1020 q 282 1049 298 1049 q 249 1035 264 1049 q 221 1003 235 1020 q 191 959 205 986 l 160 986 z "},"Ò":{"ha":875,"x_min":3,"x_max":835,"o":"m 411 927 q 614 886 523 926 q 692 843 654 870 q 760 772 729 815 q 811 669 791 729 q 834 530 830 609 q 801 302 836 400 q 708 138 767 204 q 576 37 650 71 q 425 1 502 3 q 271 28 347 0 q 134 116 194 56 q 39 270 73 176 q 12 493 4 364 q 55 694 18 615 q 140 821 91 774 q 254 898 188 869 q 411 927 320 926 m 718 455 q 708 616 725 549 q 659 732 690 684 q 591 809 628 779 q 511 855 553 839 q 415 873 468 872 q 387 872 408 873 q 337 866 365 872 q 279 845 309 860 q 217 801 249 829 q 162 717 185 773 q 129 581 138 661 q 137 360 113 459 q 206 192 161 262 q 313 87 252 123 q 433 53 374 50 q 508 64 464 53 q 595 115 552 75 q 672 235 638 155 q 718 455 707 315 m 453 967 l 430 952 l 300 1054 l 339 1082 l 453 967 m 453 967 l 430 952 l 300 1054 l 339 1082 l 453 967 z "},"Ó":{"ha":874,"x_min":3,"x_max":835,"o":"m 411 944 q 614 902 523 942 q 692 858 654 886 q 760 785 729 829 q 811 680 791 742 q 834 540 830 619 q 801 307 836 407 q 708 140 767 207 q 576 38 650 73 q 425 1 502 3 q 271 28 347 0 q 134 118 194 57 q 39 275 73 179 q 12 502 4 370 q 55 707 18 626 q 140 836 91 788 q 254 913 188 884 q 411 944 320 942 m 718 463 q 708 627 725 559 q 659 744 690 696 q 591 823 628 793 q 511 870 553 853 q 415 888 468 887 q 387 888 408 888 q 337 881 365 887 q 279 860 309 875 q 217 815 249 844 q 162 730 185 786 q 129 591 138 673 q 137 367 113 467 q 206 196 161 267 q 313 88 252 125 q 433 54 374 51 q 508 65 464 54 q 595 117 552 77 q 672 239 638 158 q 718 463 707 320 m 328 983 l 351 969 l 480 1070 l 442 1099 l 328 983 m 328 983 l 351 969 l 480 1070 l 442 1099 l 328 983 z "},"Ô":{"ha":875,"x_min":4,"x_max":836,"o":"m 369 1088 l 518 982 l 488 972 l 375 1058 l 315 936 l 265 947 l 369 1088 m 411 928 q 614 886 524 926 q 692 843 654 871 q 760 772 729 815 q 811 669 792 729 q 835 531 831 608 q 801 302 836 400 q 708 138 767 204 q 576 37 650 71 q 425 1 503 3 q 271 28 347 0 q 134 116 194 56 q 39 270 74 176 q 13 493 4 364 q 55 694 18 615 q 140 822 92 774 q 254 898 189 869 q 411 928 319 926 m 718 456 q 708 616 725 549 q 659 731 690 683 q 591 809 628 779 q 511 856 554 839 q 415 874 468 872 q 387 873 408 874 q 337 866 365 872 q 278 844 308 860 q 217 801 249 829 q 163 717 186 772 q 129 581 139 661 q 138 361 114 460 q 206 193 161 263 q 313 87 251 124 q 433 53 374 50 q 508 64 464 53 q 595 115 553 75 q 672 235 638 154 q 718 456 707 315 z "},"Õ":{"ha":878,"x_min":4,"x_max":840,"o":"m 413 944 q 618 902 526 942 q 696 858 658 886 q 765 785 733 829 q 815 680 796 742 q 839 540 835 619 q 806 307 840 407 q 712 140 771 207 q 580 38 654 73 q 427 1 505 3 q 272 28 349 0 q 134 118 195 57 q 39 275 74 179 q 13 502 4 370 q 55 707 18 626 q 141 836 92 788 q 255 913 189 884 q 413 944 321 942 m 722 463 q 712 627 729 559 q 663 744 694 696 q 594 823 632 793 q 513 870 557 853 q 417 888 470 887 q 389 888 410 888 q 339 881 367 887 q 280 860 310 875 q 218 815 250 844 q 163 730 186 786 q 129 591 139 673 q 138 367 114 467 q 207 196 161 267 q 314 88 253 125 q 436 54 376 51 q 511 65 466 54 q 598 117 555 77 q 676 239 641 158 q 722 463 711 320 m 264 986 q 312 1032 288 1010 q 352 1063 329 1048 q 394 1085 375 1079 q 426 1073 414 1087 q 449 1044 438 1060 q 469 1016 460 1028 q 492 1004 479 1004 q 507 1020 501 1004 q 518 1058 514 1036 q 527 1111 525 1079 l 564 1103 q 542 1036 553 1064 q 522 990 534 1010 q 497 970 510 970 q 464 979 475 968 q 444 1006 453 990 q 426 1037 436 1022 q 399 1052 416 1052 q 363 1037 379 1052 q 331 1004 347 1022 q 299 958 314 986 l 264 986 z "},"Ö":{"ha":875,"x_min":4,"x_max":836,"o":"m 354 967 q 332 950 346 953 q 307 957 318 947 q 294 984 296 968 q 300 1014 292 1000 q 323 1031 308 1028 q 349 1022 338 1033 q 362 997 360 1013 q 354 967 364 981 m 496 997 q 515 1011 503 1008 q 538 1006 528 1014 q 550 982 549 996 q 544 956 551 968 q 525 942 538 944 q 501 949 513 940 q 490 972 492 957 q 496 997 489 986 m 411 928 q 614 886 524 926 q 692 843 654 871 q 760 772 729 815 q 811 669 792 729 q 835 531 831 608 q 801 302 836 400 q 708 138 767 204 q 576 37 650 71 q 425 1 503 3 q 271 28 347 0 q 134 116 194 56 q 39 270 74 176 q 13 493 4 364 q 55 694 18 615 q 140 822 92 774 q 254 898 189 869 q 411 928 319 926 m 718 456 q 708 616 725 549 q 659 731 690 683 q 591 809 628 779 q 511 856 554 839 q 415 874 468 872 q 387 873 408 874 q 337 866 365 872 q 278 844 308 860 q 217 801 249 829 q 163 717 186 772 q 129 581 139 661 q 138 361 114 460 q 206 193 161 263 q 313 87 251 124 q 433 53 374 50 q 508 64 464 53 q 595 115 553 75 q 672 235 638 154 q 718 456 707 315 z "},"×":{"ha":610,"x_min":6,"x_max":554,"o":"m 554 225 l 472 222 l 269 429 l 121 231 l 15 232 l 219 483 l 6 703 l 93 704 l 260 531 l 386 688 l 464 685 l 310 481 l 554 225 z "},"Ø":{"ha":863,"x_min":3,"x_max":822,"o":"m 715 843 q 788 727 758 799 q 822 551 818 656 q 788 314 822 415 q 697 144 754 213 q 567 40 640 75 q 417 3 493 4 q 272 28 343 1 q 140 110 200 54 l 82 36 l 8 107 l 78 189 q 22 329 40 249 q 8 513 3 410 q 45 705 15 628 q 118 831 75 782 q 209 907 161 881 q 299 944 257 933 q 404 961 340 956 q 440 960 414 961 q 504 951 467 958 q 585 928 542 944 q 669 882 629 913 l 751 979 l 801 954 l 715 843 m 124 603 q 122 428 111 508 q 158 282 132 349 l 608 813 q 547 864 579 844 q 487 895 515 883 q 438 912 458 907 q 413 917 418 917 q 383 917 404 917 q 332 911 361 918 q 271 887 303 904 q 209 835 239 869 q 156 744 179 801 q 124 603 132 688 m 425 54 q 471 60 444 56 q 526 79 497 65 q 585 120 556 93 q 639 193 614 147 q 682 308 664 239 q 707 474 700 376 q 697 639 714 569 q 647 758 679 708 l 206 192 q 309 88 251 125 q 425 54 367 51 z "},"Ù":{"ha":751,"x_min":1,"x_max":686,"o":"m 1 941 l 182 937 q 156 902 168 918 q 135 871 144 886 q 125 845 126 856 q 127 676 125 762 q 138 510 129 591 q 163 353 146 428 q 207 221 179 279 q 281 126 235 163 q 390 79 328 89 q 490 124 450 73 q 553 258 531 175 q 578 440 575 341 q 581 629 582 540 q 569 783 579 718 q 544 864 558 849 q 533 876 543 867 q 513 894 524 884 l 485 918 l 582 918 l 678 919 q 683 717 679 825 q 683 502 686 608 q 666 299 679 396 q 619 132 653 202 q 528 27 585 62 q 383 7 471 -8 q 215 86 281 26 q 110 230 150 147 q 53 410 71 312 q 28 599 35 508 q 22 769 22 691 q 18 890 22 847 l 8 921 q 1 941 4 930 m 441 1421 l 420 1404 l 300 1524 l 336 1557 l 441 1421 m 441 1421 l 420 1404 l 300 1524 l 336 1557 l 441 1421 m 361 995 l 341 978 l 221 1097 l 257 1131 l 361 995 m 361 995 l 341 978 l 221 1097 l 257 1131 l 361 995 z "},"Ú":{"ha":750,"x_min":1,"x_max":686,"o":"m 1 971 l 182 967 q 156 931 168 947 q 135 899 144 914 q 125 872 126 883 q 127 698 125 786 q 138 526 129 610 q 163 365 146 442 q 207 228 179 288 q 281 130 235 168 q 390 82 328 92 q 490 128 450 75 q 553 266 531 181 q 578 454 575 351 q 581 649 582 557 q 569 808 579 740 q 544 892 558 876 q 533 903 543 894 q 513 922 524 913 l 485 947 l 582 947 l 678 949 q 683 740 679 851 q 683 518 686 628 q 666 308 679 408 q 619 136 653 208 q 528 28 585 64 q 383 7 471 -8 q 215 89 281 26 q 110 237 150 151 q 53 423 71 322 q 28 618 35 524 q 22 793 22 713 q 18 918 22 874 l 8 950 q 1 971 4 960 m 258 1453 l 279 1436 l 398 1556 l 363 1589 l 258 1453 m 258 1453 l 279 1436 l 398 1556 l 363 1589 l 258 1453 m 321 981 l 342 964 l 460 1084 l 425 1117 l 321 981 m 321 981 l 342 964 l 460 1084 l 425 1117 l 321 981 z "},"Û":{"ha":750,"x_min":1,"x_max":686,"o":"m 333 1125 l 482 1019 l 451 1010 l 339 1096 l 279 974 l 229 985 l 333 1125 m 1 971 l 182 967 q 156 931 168 947 q 135 899 144 914 q 125 872 126 883 q 127 698 125 786 q 138 526 129 610 q 163 365 146 442 q 207 228 179 288 q 281 130 235 168 q 390 82 328 92 q 490 128 450 75 q 553 266 531 181 q 578 454 575 351 q 581 649 582 557 q 569 808 579 740 q 544 892 558 876 q 533 903 543 894 q 513 922 524 913 l 485 947 l 582 947 l 678 949 q 683 740 679 851 q 683 518 686 628 q 666 308 679 408 q 619 136 653 208 q 528 28 585 64 q 383 7 471 -8 q 215 89 281 26 q 110 237 150 151 q 53 423 71 322 q 28 618 35 524 q 22 793 22 713 q 18 918 22 874 l 8 950 q 1 971 4 960 z "},"Ü":{"ha":750,"x_min":1,"x_max":686,"o":"m 1 971 l 182 967 q 156 931 168 947 q 135 899 144 914 q 125 872 126 883 q 127 698 125 786 q 138 526 129 610 q 163 365 146 442 q 207 228 179 288 q 281 130 235 168 q 390 82 328 92 q 490 128 450 75 q 553 266 531 181 q 578 454 575 351 q 581 649 582 557 q 569 808 579 740 q 544 892 558 876 q 533 903 543 894 q 513 922 524 913 l 485 947 l 582 947 l 678 949 q 683 740 679 851 q 683 518 686 628 q 666 308 679 408 q 619 136 653 208 q 528 28 585 64 q 383 7 471 -8 q 215 89 281 26 q 110 237 150 151 q 53 423 71 322 q 28 618 35 524 q 22 793 22 713 q 18 918 22 874 l 8 950 q 1 971 4 960 m 288 988 q 260 970 276 971 q 229 979 243 969 q 215 1008 217 990 q 222 1040 213 1025 q 248 1056 232 1053 q 276 1049 264 1058 q 292 1019 290 1036 q 288 988 294 1001 m 379 1022 q 402 1037 389 1036 q 426 1029 415 1038 q 440 1003 438 1018 q 435 975 442 989 q 412 960 425 963 q 385 969 399 958 q 373 994 375 978 q 379 1022 371 1010 z "},"Ý":{"ha":764,"x_min":0,"x_max":744,"o":"m 313 1422 l 332 1407 l 441 1516 l 409 1546 l 313 1422 m 313 1422 l 332 1407 l 441 1516 l 409 1546 l 313 1422 m 0 971 l 163 964 l 143 949 q 131 936 136 943 q 124 926 125 929 q 360 560 124 924 q 581 904 582 901 q 569 918 578 910 q 551 936 561 926 q 526 960 540 947 l 744 951 l 681 893 l 413 482 l 438 49 l 497 1 l 247 1 q 318 46 304 35 q 335 64 332 57 q 336 89 336 68 q 336 142 336 110 q 335 213 336 174 q 332 292 333 251 q 322 490 326 386 q 160 742 199 686 q 88 847 122 799 q 29 929 54 894 q 0 971 4 964 m 330 995 l 350 978 l 469 1098 l 433 1131 l 330 995 m 330 995 l 350 978 l 469 1098 l 433 1131 l 330 995 z "},"Þ":{"ha":686,"x_min":0,"x_max":657,"o":"m 642 568 q 640 441 657 494 q 585 350 622 388 q 497 290 549 313 q 392 254 446 268 q 287 236 338 240 q 201 232 236 232 q 212 124 208 165 q 217 81 215 83 q 235 68 219 78 q 269 49 250 58 q 318 21 292 36 l 72 3 q 92 21 82 13 q 117 54 111 40 q 124 137 124 71 q 122 292 125 203 q 116 481 119 381 q 106 671 113 582 q 94 824 100 760 q 82 907 88 889 q 67 924 79 914 q 39 944 54 933 q 0 969 22 957 l 206 969 q 183 950 193 958 q 168 933 176 942 q 158 919 160 925 q 159 889 158 918 q 164 813 160 860 q 344 824 263 828 q 485 792 425 819 q 584 710 544 764 q 642 568 624 656 m 196 301 q 262 299 225 300 q 338 304 299 299 q 416 324 378 310 q 485 364 454 338 q 533 432 515 390 q 549 533 550 474 q 493 669 539 625 q 388 730 447 714 q 269 741 329 746 q 168 728 208 736 q 174 627 171 682 q 181 517 178 572 q 189 406 185 461 q 196 301 193 351 z "},"ß":{"ha":681,"x_min":0,"x_max":640,"o":"m 0 6 l 0 725 q 10 820 0 774 q 49 902 21 867 q 131 955 78 938 q 269 964 183 972 q 386 928 340 956 q 458 869 432 901 q 494 805 485 836 q 504 757 504 774 q 490 681 504 711 q 455 631 475 651 q 411 599 435 611 q 367 581 388 588 q 333 573 347 575 q 318 567 318 571 q 339 562 317 564 q 395 553 361 560 q 470 530 429 546 q 547 483 511 514 q 608 403 583 451 q 636 281 632 354 q 601 133 640 194 q 502 42 561 72 q 376 9 443 11 q 256 39 308 7 q 211 91 232 54 q 193 168 190 128 q 205 169 192 169 q 235 168 218 168 q 278 167 253 167 q 286 106 276 132 q 315 66 293 83 q 376 51 336 49 q 485 118 450 56 q 522 275 521 181 q 510 365 522 326 q 476 431 497 404 q 426 476 454 458 q 368 503 397 493 q 211 524 300 528 l 211 606 q 313 619 269 604 q 379 661 350 632 q 407 747 408 690 q 354 878 403 835 q 248 924 306 921 q 142 890 190 926 q 89 783 93 854 l 108 58 l 171 1 l 0 6 z "},"à":{"ha":701,"x_min":0,"x_max":667,"o":"m 388 1463 l 367 1446 l 247 1565 l 283 1599 l 388 1463 m 388 1463 l 367 1446 l 247 1565 l 283 1599 l 388 1463 m 307 969 l 286 953 l 167 1072 l 203 1106 l 307 969 m 0 0 l 286 928 l 667 13 l 507 3 l 539 43 l 278 697 l 194 388 l 421 403 l 436 333 l 179 318 l 90 36 l 125 0 l 1 1 l 0 0 z "},"á":{"ha":701,"x_min":0,"x_max":667,"o":"m 0 0 l 286 928 l 667 13 l 507 3 l 539 43 l 278 697 l 194 388 l 421 403 l 436 333 l 179 318 l 90 36 l 125 0 l 1 1 l 0 0 m 369 1099 l 404 1065 l 286 946 l 265 963 l 369 1099 m 369 1099 l 404 1065 l 286 946 l 265 963 l 369 1099 z "},"â":{"ha":671,"x_min":-3,"x_max":626,"o":"m 174 949 l 144 946 q 145 958 143 946 q 158 990 147 969 q 194 1031 168 1011 q 250 1047 221 1047 q 297 1041 279 1047 q 331 1028 315 1035 q 372 992 360 1008 q 389 961 383 975 l 358 953 q 325 996 344 978 q 280 1019 306 1014 q 233 1021 254 1025 q 199 1005 211 1017 q 181 979 186 993 q 174 949 172 960 m -3 0 l 268 925 l 626 13 l 476 3 l 507 43 l 260 696 l 181 386 l 394 401 l 410 332 l 167 318 l 82 36 l 115 0 l -1 1 l -3 0 z "},"ã":{"ha":701,"x_min":0,"x_max":667,"o":"m 0 0 l 286 928 l 667 13 l 507 3 l 539 43 l 278 697 l 194 388 l 421 403 l 436 333 l 179 318 l 90 36 l 125 0 l 1 1 l 0 0 m 122 953 q 169 999 146 976 q 210 1031 188 1015 q 253 1051 233 1046 q 284 1040 272 1053 q 307 1011 296 1028 q 328 983 318 994 q 350 971 338 971 q 366 987 360 971 q 376 1025 372 1003 q 385 1078 383 1046 l 422 1069 q 400 1003 411 1031 q 380 956 392 976 q 356 936 368 936 q 322 946 333 935 q 303 973 311 957 q 285 1004 294 989 q 257 1019 275 1019 q 222 1004 238 1019 q 190 971 206 989 q 157 925 172 953 l 122 953 z "},"ä":{"ha":701,"x_min":0,"x_max":667,"o":"m 0 0 l 286 928 l 667 13 l 507 3 l 539 43 l 278 697 l 194 388 l 421 403 l 436 333 l 179 318 l 90 36 l 125 0 l 1 1 l 0 0 m 254 999 q 226 981 243 982 q 196 990 210 981 q 181 1019 183 1001 q 189 1051 179 1036 q 215 1067 199 1064 q 243 1060 231 1069 q 259 1030 257 1047 q 254 999 261 1013 m 346 1033 q 369 1048 356 1047 q 393 1040 382 1049 q 406 1015 404 1029 q 401 986 408 1000 q 378 972 392 974 q 351 981 365 969 q 340 1005 342 989 q 346 1033 338 1021 z "},"å":{"ha":701,"x_min":0,"x_max":667,"o":"m 290 1071 q 315 1068 301 1071 q 341 1058 328 1065 q 363 1036 354 1050 q 374 999 372 1022 q 365 964 372 978 q 339 938 357 950 q 285 926 321 925 q 235 937 250 928 q 211 960 219 946 q 204 997 203 975 q 215 1035 206 1021 q 238 1058 225 1050 q 265 1068 251 1065 q 290 1071 279 1071 m 288 942 q 308 944 297 942 q 330 955 319 947 q 346 974 340 963 q 351 1001 351 985 q 343 1027 350 1018 q 327 1042 336 1036 q 308 1051 318 1049 q 294 1053 299 1053 q 247 1038 267 1054 q 226 990 226 1021 q 233 969 226 978 q 248 953 239 960 q 267 944 257 947 q 288 942 278 942 m 0 0 l 286 928 l 667 13 l 507 3 l 539 43 l 278 697 l 194 388 l 421 403 l 436 333 l 179 318 l 90 36 l 125 0 l 1 1 l 0 0 z "},"æ":{"ha":1028,"x_min":-1,"x_max":961,"o":"m 385 974 l 961 961 q 960 783 960 782 q 942 802 960 785 q 903 840 925 819 q 862 878 881 861 q 838 896 843 894 q 539 883 835 896 l 549 507 l 786 529 l 786 438 l 549 438 l 556 76 q 819 85 817 83 q 839 99 822 88 q 872 124 856 111 l 921 158 l 921 1 l 444 1 l 444 78 l 481 76 l 482 881 l 386 881 l 385 974 m -1 1 l 451 924 l 511 885 l 507 1 l 363 1 l 401 21 q 428 35 415 28 q 442 44 440 42 q 442 78 442 44 q 446 167 443 113 q 451 292 449 221 q 458 434 454 363 q 464 572 461 506 q 469 687 467 638 q 473 760 472 736 q 474 771 474 783 l 324 481 l 475 489 l 494 440 l 306 439 l 211 242 q 176 170 193 206 q 146 106 158 135 q 126 60 133 78 q 118 42 118 42 q 128 32 118 38 q 154 19 139 26 q 192 1 171 11 l -1 1 z "},"ç":{"ha":711,"x_min":10,"x_max":657,"o":"m 328 30 q 336 27 326 26 q 358 28 346 28 q 388 30 372 28 q 378 13 383 21 q 373 -3 375 5 q 378 -15 372 -10 q 393 -22 383 -20 q 413 -25 403 -24 q 434 -32 424 -27 q 450 -49 444 -37 q 429 -103 464 -74 q 308 -132 395 -132 q 308 -110 308 -132 l 308 -89 q 363 -92 338 -94 q 401 -84 383 -90 q 420 -59 419 -77 q 412 -40 422 -44 q 388 -38 402 -37 q 361 -39 375 -39 q 341 -32 348 -40 q 332 -14 335 -25 q 329 8 330 -2 q 328 25 328 18 q 328 30 328 31 m 657 956 l 611 844 q 360 857 469 881 q 269 822 313 846 q 192 752 225 797 q 142 638 160 707 q 129 468 124 568 q 155 290 133 361 q 208 176 176 219 q 278 110 239 132 q 358 83 318 89 q 569 122 453 69 l 617 15 q 307 26 442 -12 q 195 75 249 42 q 100 163 142 108 q 34 299 58 217 q 14 494 10 381 q 72 703 19 611 q 213 858 125 796 q 415 945 300 919 q 657 956 531 971 z "},"è":{"ha":706,"x_min":0,"x_max":642,"o":"m 0 924 l 642 914 l 640 758 q 586 801 611 781 q 533 842 561 821 l 158 846 l 161 529 l 422 542 l 422 457 l 163 457 l 172 75 q 485 82 483 81 q 600 153 489 83 l 600 3 l 33 3 l 33 75 l 74 72 l 74 849 l 0 849 l 0 924 m 361 964 l 340 947 l 221 1067 l 257 1100 l 361 964 m 361 964 l 340 947 l 221 1067 l 257 1100 l 361 964 z "},"é":{"ha":706,"x_min":0,"x_max":642,"o":"m 0 924 l 642 914 l 640 758 q 586 801 611 781 q 533 842 561 821 l 158 846 l 161 529 l 422 542 l 422 457 l 163 457 l 172 75 q 485 82 483 81 q 600 153 489 83 l 600 3 l 33 3 l 33 75 l 74 72 l 74 849 l 0 849 l 0 924 m 383 1099 l 418 1065 l 300 946 l 279 963 l 383 1099 m 383 1099 l 418 1065 l 300 946 l 279 963 l 383 1099 z "},"ê":{"ha":706,"x_min":0,"x_max":642,"o":"m 289 1136 l 438 1031 l 407 1021 l 294 1107 l 235 985 l 185 996 l 289 1136 m 0 924 l 642 914 l 640 758 q 586 801 611 781 q 533 842 561 821 l 158 846 l 161 529 l 422 542 l 422 457 l 163 457 l 172 75 q 485 82 483 81 q 600 153 489 83 l 600 3 l 33 3 l 33 75 l 74 72 l 74 849 l 0 849 l 0 924 z "},"ë":{"ha":706,"x_min":0,"x_max":642,"o":"m 0 924 l 642 914 l 640 758 q 586 801 611 781 q 533 842 561 821 l 158 846 l 161 529 l 422 542 l 422 457 l 163 457 l 172 75 q 485 82 483 81 q 600 153 489 83 l 600 3 l 33 3 l 33 75 l 74 72 l 74 849 l 0 849 l 0 924 m 288 990 q 260 973 276 974 q 229 982 243 972 q 215 1010 217 993 q 222 1043 213 1028 q 248 1058 232 1056 q 276 1051 264 1061 q 292 1022 290 1039 q 288 990 294 1004 m 379 1025 q 402 1040 389 1039 q 426 1032 415 1040 q 440 1006 438 1021 q 435 978 442 992 q 412 963 425 965 q 385 972 399 961 q 373 997 375 981 q 379 1025 371 1013 z "},"ì":{"ha":286,"x_min":1,"x_max":226,"o":"m 3 938 l 186 938 q 164 918 174 927 q 149 901 157 909 q 140 888 141 893 q 143 482 140 887 q 147 75 145 76 q 227 3 149 71 l 5 0 q 50 50 43 36 q 56 463 52 55 q 59 876 59 872 q 47 893 55 883 q 3 938 39 903 m 111 981 l 98 971 l 29 1041 l 50 1061 l 111 981 m 111 981 l 98 971 l 29 1041 l 50 1061 l 111 981 z "},"í":{"ha":289,"x_min":1,"x_max":231,"o":"m 3 938 l 189 938 q 167 918 177 927 q 152 901 160 909 q 143 888 144 893 q 145 482 143 887 q 149 75 148 76 q 232 3 152 71 l 5 0 q 51 50 44 36 q 57 463 53 55 q 60 876 60 872 q 48 893 56 883 q 3 938 40 903 m 57 972 l 70 962 l 139 1031 l 119 1051 l 57 972 m 57 972 l 70 962 l 139 1031 l 119 1051 l 57 972 z "},"î":{"ha":289,"x_min":0,"x_max":229,"o":"m 85 1074 l 199 992 l 175 985 l 89 1051 l 42 957 l 4 967 l 85 1074 m 0 938 l 186 938 q 164 918 174 926 q 150 901 158 910 q 140 888 142 893 q 143 481 140 886 q 147 75 146 76 q 229 3 150 71 l 3 0 q 49 50 42 36 q 54 464 51 56 q 57 876 57 872 q 45 893 53 883 q 0 938 38 903 z "},"ï":{"ha":289,"x_min":1,"x_max":232,"o":"m 4 938 l 191 938 q 169 918 178 927 q 154 901 162 909 q 144 888 145 893 q 147 482 144 887 q 151 75 149 76 q 233 3 154 71 l 7 0 q 52 50 45 36 q 58 463 55 55 q 62 876 62 872 q 49 893 58 883 q 4 938 41 903 m 65 982 q 41 969 56 969 q 16 976 27 968 q 3 999 5 985 q 10 1025 1 1013 q 31 1037 18 1035 q 56 1032 45 1039 q 69 1008 67 1021 q 65 982 71 994 m 143 1010 q 162 1022 151 1021 q 183 1016 173 1023 q 194 995 192 1007 q 190 972 196 984 q 171 961 182 962 q 148 968 159 959 q 138 987 139 975 q 143 1010 136 1000 z "},"ð":{"ha":803,"x_min":0,"x_max":753,"o":"m 3 954 q 328 960 179 986 q 454 924 390 949 q 572 853 518 899 q 669 740 626 808 q 731 576 711 672 q 735 356 753 449 q 674 200 718 264 q 566 97 631 136 q 432 38 501 58 q 44 11 268 -12 l 43 90 q 342 92 213 63 q 449 132 397 104 q 541 208 501 160 q 603 327 581 256 q 621 501 625 399 q 591 658 614 592 q 534 769 568 724 q 459 842 500 814 q 375 885 418 869 q 156 906 276 921 l 190 56 l 97 69 l 94 896 l 11 872 l 3 954 m 0 519 l 344 546 l 340 456 l 4 467 l 0 519 z "},"ñ":{"ha":724,"x_min":-1,"x_max":661,"o":"m 7 917 l 110 921 l 586 276 q 576 917 578 913 q 563 931 572 921 q 542 950 553 940 l 513 969 l 653 971 l 661 3 l 86 768 q 114 60 113 67 q 129 42 118 53 q 153 22 140 31 q 186 1 168 11 l -1 1 l 38 46 l 7 917 m 156 986 q 199 1030 177 1009 q 235 1060 215 1045 q 274 1080 256 1074 q 302 1069 292 1082 q 323 1041 313 1057 q 342 1014 333 1026 q 362 1003 351 1003 q 376 1018 370 1003 q 386 1055 382 1034 q 394 1105 392 1074 l 427 1097 q 408 1034 418 1061 q 389 989 400 1009 q 366 970 378 970 q 337 979 347 968 q 319 1005 327 989 q 302 1035 311 1020 q 278 1049 293 1049 q 245 1035 260 1049 q 217 1003 230 1020 q 187 959 201 986 l 156 986 z "},"ò":{"ha":875,"x_min":3,"x_max":835,"o":"m 411 927 q 614 886 523 926 q 692 843 654 870 q 760 772 729 815 q 811 669 791 729 q 834 530 830 609 q 801 302 836 400 q 708 138 767 204 q 576 37 650 71 q 425 1 502 3 q 271 28 347 0 q 134 116 194 56 q 39 270 73 176 q 12 493 4 364 q 55 694 18 615 q 140 821 91 774 q 254 898 188 869 q 411 927 320 926 m 718 455 q 708 616 725 549 q 659 732 690 684 q 591 809 628 779 q 511 855 553 839 q 415 873 468 872 q 387 872 408 873 q 337 866 365 872 q 279 845 309 860 q 217 801 249 829 q 162 717 185 773 q 129 581 138 661 q 137 360 113 459 q 206 192 161 262 q 313 87 252 123 q 433 53 374 50 q 508 64 464 53 q 595 115 552 75 q 672 235 638 155 q 718 455 707 315 m 451 973 l 429 959 l 299 1061 l 338 1089 l 451 973 m 451 973 l 429 959 l 299 1061 l 338 1089 l 451 973 z "},"ó":{"ha":874,"x_min":3,"x_max":835,"o":"m 411 944 q 614 902 523 942 q 692 858 654 886 q 760 785 729 829 q 811 680 791 742 q 834 540 830 619 q 801 307 836 407 q 708 140 767 207 q 576 38 650 73 q 425 1 502 3 q 271 28 347 0 q 134 118 194 57 q 39 275 73 179 q 12 502 4 370 q 55 707 18 626 q 140 836 91 788 q 254 913 188 884 q 411 944 320 942 m 718 463 q 708 627 725 559 q 659 744 690 696 q 591 823 628 793 q 511 870 553 853 q 415 888 468 887 q 387 888 408 888 q 337 881 365 887 q 279 860 309 875 q 217 815 249 844 q 162 730 185 786 q 129 591 138 673 q 137 367 113 467 q 206 196 161 267 q 313 88 252 125 q 433 54 374 51 q 508 65 464 54 q 595 117 552 77 q 672 239 638 158 q 718 463 707 320 m 306 985 l 328 970 l 458 1072 l 419 1100 l 306 985 m 306 985 l 328 970 l 458 1072 l 419 1100 l 306 985 z "},"ô":{"ha":875,"x_min":4,"x_max":836,"o":"m 382 1097 l 531 992 l 500 982 l 388 1068 l 328 946 l 278 957 l 382 1097 m 411 928 q 614 886 524 926 q 692 843 654 871 q 760 772 729 815 q 811 669 792 729 q 835 531 831 608 q 801 302 836 400 q 708 138 767 204 q 576 37 650 71 q 425 1 503 3 q 271 28 347 0 q 134 116 194 56 q 39 270 74 176 q 13 493 4 364 q 55 694 18 615 q 140 822 92 774 q 254 898 189 869 q 411 928 319 926 m 718 456 q 708 616 725 549 q 659 731 690 683 q 591 809 628 779 q 511 856 554 839 q 415 874 468 872 q 387 873 408 874 q 337 866 365 872 q 278 844 308 860 q 217 801 249 829 q 163 717 186 772 q 129 581 139 661 q 138 361 114 460 q 206 193 161 263 q 313 87 251 124 q 433 53 374 50 q 508 64 464 53 q 595 115 553 75 q 672 235 638 154 q 718 456 707 315 z "},"õ":{"ha":878,"x_min":4,"x_max":840,"o":"m 413 944 q 618 902 526 942 q 696 858 658 886 q 765 785 733 829 q 815 680 796 742 q 839 540 835 619 q 806 307 840 407 q 712 140 771 207 q 580 38 654 73 q 427 1 505 3 q 272 28 349 0 q 134 118 195 57 q 39 275 74 179 q 13 502 4 370 q 55 707 18 626 q 141 836 92 788 q 255 913 189 884 q 413 944 321 942 m 722 463 q 712 627 729 559 q 663 744 694 696 q 594 823 632 793 q 513 870 557 853 q 417 888 470 887 q 389 888 410 888 q 339 881 367 887 q 280 860 310 875 q 218 815 250 844 q 163 730 186 786 q 129 591 139 673 q 138 367 114 467 q 207 196 161 267 q 314 88 253 125 q 436 54 376 51 q 511 65 466 54 q 598 117 555 77 q 676 239 641 158 q 722 463 711 320 m 261 996 q 309 1042 285 1020 q 349 1073 326 1058 q 392 1094 372 1088 q 423 1083 411 1096 q 446 1054 435 1070 q 467 1026 457 1038 q 489 1014 476 1014 q 505 1030 498 1014 q 516 1068 511 1046 q 524 1120 522 1088 l 561 1112 q 539 1046 550 1074 q 519 1000 531 1020 q 494 979 507 979 q 461 989 472 977 q 442 1016 450 1000 q 423 1047 433 1032 q 396 1062 413 1062 q 360 1047 376 1062 q 329 1014 344 1032 q 296 967 311 996 l 261 996 z "},"ö":{"ha":874,"x_min":3,"x_max":835,"o":"m 368 986 q 340 969 357 969 q 310 978 324 968 q 295 1006 297 989 q 303 1039 293 1024 q 328 1054 313 1051 q 357 1047 344 1057 q 373 1017 371 1035 q 368 986 375 1000 m 460 1021 q 483 1035 469 1035 q 507 1028 496 1036 q 520 1002 518 1017 q 515 974 522 988 q 492 959 506 961 q 465 968 479 957 q 453 992 456 976 q 460 1021 451 1008 m 411 935 q 614 893 523 933 q 692 849 654 877 q 760 778 729 821 q 811 674 791 735 q 834 535 830 613 q 801 304 836 403 q 708 139 767 205 q 576 37 650 72 q 425 1 502 3 q 271 28 347 0 q 134 117 194 56 q 39 272 73 177 q 12 497 4 367 q 55 700 18 620 q 140 828 91 780 q 254 905 188 876 q 411 935 320 933 m 718 459 q 708 621 725 553 q 659 737 690 689 q 591 815 628 785 q 511 862 553 845 q 415 880 468 879 q 387 879 408 880 q 337 873 365 879 q 279 851 309 867 q 217 807 249 836 q 162 723 185 779 q 129 585 138 667 q 137 363 113 463 q 206 194 161 264 q 313 87 252 124 q 433 53 374 51 q 508 65 464 53 q 595 116 552 76 q 672 237 638 156 q 718 459 707 317 z "},"÷":{"ha":547,"x_min":1,"x_max":475,"o":"m 1 424 l 475 449 l 471 368 l 7 378 l 1 424 m 263 301 q 285 267 282 288 q 276 226 289 246 q 242 205 264 208 q 203 214 221 201 q 180 249 183 228 q 189 289 176 269 q 223 310 201 307 q 263 301 244 314 m 215 517 q 197 547 200 528 q 204 582 193 567 q 234 601 215 597 q 268 593 253 604 q 288 563 285 582 q 281 529 292 544 q 250 510 269 514 q 215 517 231 506 z "},"ø":{"ha":863,"x_min":3,"x_max":822,"o":"m 715 843 q 788 727 758 799 q 822 551 818 656 q 788 314 822 415 q 697 144 754 213 q 567 40 640 75 q 417 3 493 4 q 272 28 343 1 q 140 110 200 54 l 82 36 l 8 107 l 78 189 q 22 329 40 249 q 8 513 3 410 q 45 705 15 628 q 118 831 75 782 q 209 907 161 881 q 299 944 257 933 q 404 961 340 956 q 440 960 414 961 q 504 951 467 958 q 585 928 542 944 q 669 882 629 913 l 751 979 l 801 954 l 715 843 m 124 603 q 122 428 111 508 q 158 282 132 349 l 608 813 q 547 864 579 844 q 487 895 515 883 q 438 912 458 907 q 413 917 418 917 q 383 917 404 917 q 332 911 361 918 q 271 887 303 904 q 209 835 239 869 q 156 744 179 801 q 124 603 132 688 m 425 54 q 471 60 444 56 q 526 79 497 65 q 585 120 556 93 q 639 193 614 147 q 682 308 664 239 q 707 474 700 376 q 697 639 714 569 q 647 758 679 708 l 206 192 q 309 88 251 125 q 425 54 367 51 z "},"ù":{"ha":751,"x_min":1,"x_max":686,"o":"m 1 941 l 182 937 q 156 902 168 918 q 135 871 144 886 q 125 845 126 856 q 127 676 125 762 q 138 510 129 591 q 163 353 146 428 q 207 221 179 279 q 281 126 235 163 q 390 79 328 89 q 490 124 450 73 q 553 258 531 175 q 578 440 575 341 q 581 629 582 540 q 569 783 579 718 q 544 864 558 849 q 533 876 543 867 q 513 894 524 884 l 485 918 l 582 918 l 678 919 q 683 717 679 825 q 683 502 686 608 q 666 299 679 396 q 619 132 653 202 q 528 27 585 62 q 383 7 471 -8 q 215 86 281 26 q 110 230 150 147 q 53 410 71 312 q 28 599 35 508 q 22 769 22 691 q 18 890 22 847 l 8 921 q 1 941 4 930 m 361 995 l 341 978 l 221 1097 l 257 1131 l 361 995 m 361 995 l 341 978 l 221 1097 l 257 1131 l 361 995 z "},"ú":{"ha":750,"x_min":1,"x_max":686,"o":"m 1 971 l 182 967 q 156 931 168 947 q 135 899 144 914 q 125 872 126 883 q 127 698 125 786 q 138 526 129 610 q 163 365 146 442 q 207 228 179 288 q 281 130 235 168 q 390 82 328 92 q 490 128 450 75 q 553 266 531 181 q 578 454 575 351 q 581 649 582 557 q 569 808 579 740 q 544 892 558 876 q 533 903 543 894 q 513 922 524 913 l 485 947 l 582 947 l 678 949 q 683 740 679 851 q 683 518 686 628 q 666 308 679 408 q 619 136 653 208 q 528 28 585 64 q 383 7 471 -8 q 215 89 281 26 q 110 237 150 151 q 53 423 71 322 q 28 618 35 524 q 22 793 22 713 q 18 918 22 874 l 8 950 q 1 971 4 960 m 244 1442 l 265 1425 l 384 1545 l 349 1578 l 244 1442 m 244 1442 l 265 1425 l 384 1545 l 349 1578 l 244 1442 m 321 981 l 342 964 l 460 1084 l 425 1117 l 321 981 m 321 981 l 342 964 l 460 1084 l 425 1117 l 321 981 z "},"û":{"ha":750,"x_min":1,"x_max":686,"o":"m 333 1125 l 482 1019 l 451 1010 l 339 1096 l 279 974 l 229 985 l 333 1125 m 1 971 l 182 967 q 156 931 168 947 q 135 899 144 914 q 125 872 126 883 q 127 698 125 786 q 138 526 129 610 q 163 365 146 442 q 207 228 179 288 q 281 130 235 168 q 390 82 328 92 q 490 128 450 75 q 553 266 531 181 q 578 454 575 351 q 581 649 582 557 q 569 808 579 740 q 544 892 558 876 q 533 903 543 894 q 513 922 524 913 l 485 947 l 582 947 l 678 949 q 683 740 679 851 q 683 518 686 628 q 666 308 679 408 q 619 136 653 208 q 528 28 585 64 q 383 7 471 -8 q 215 89 281 26 q 110 237 150 151 q 53 423 71 322 q 28 618 35 524 q 22 793 22 713 q 18 918 22 874 l 8 950 q 1 971 4 960 z "},"ü":{"ha":750,"x_min":1,"x_max":686,"o":"m 1 971 l 182 967 q 156 931 168 947 q 135 899 144 914 q 125 872 126 883 q 127 698 125 786 q 138 526 129 610 q 163 365 146 442 q 207 228 179 288 q 281 130 235 168 q 390 82 328 92 q 490 128 450 75 q 553 266 531 181 q 578 454 575 351 q 581 649 582 557 q 569 808 579 740 q 544 892 558 876 q 533 903 543 894 q 513 922 524 913 l 485 947 l 582 947 l 678 949 q 683 740 679 851 q 683 518 686 628 q 666 308 679 408 q 619 136 653 208 q 528 28 585 64 q 383 7 471 -8 q 215 89 281 26 q 110 237 150 151 q 53 423 71 322 q 28 618 35 524 q 22 793 22 713 q 18 918 22 874 l 8 950 q 1 971 4 960 m 288 988 q 260 970 276 971 q 229 979 243 969 q 215 1008 217 990 q 222 1040 213 1025 q 248 1056 232 1053 q 276 1049 264 1058 q 292 1019 290 1036 q 288 988 294 1001 m 379 1022 q 402 1037 389 1036 q 426 1029 415 1038 q 440 1003 438 1018 q 435 975 442 989 q 412 960 425 963 q 385 969 399 958 q 373 994 375 978 q 379 1022 371 1010 z "},"ý":{"ha":764,"x_min":0,"x_max":744,"o":"m 298 1415 l 317 1400 l 426 1509 l 393 1539 l 298 1415 m 298 1415 l 317 1400 l 426 1509 l 393 1539 l 298 1415 m 0 971 l 163 964 l 143 949 q 131 936 136 943 q 124 926 125 929 q 360 560 124 924 q 581 904 582 901 q 569 918 578 910 q 551 936 561 926 q 526 960 540 947 l 744 951 l 681 893 l 413 482 l 438 49 l 497 1 l 247 1 q 318 46 304 35 q 335 64 332 57 q 336 89 336 68 q 336 142 336 110 q 335 213 336 174 q 332 292 333 251 q 322 490 326 386 q 160 742 199 686 q 88 847 122 799 q 29 929 54 894 q 0 971 4 964 m 321 981 l 342 964 l 460 1084 l 425 1117 l 321 981 m 321 981 l 342 964 l 460 1084 l 425 1117 l 321 981 z "},"þ":{"ha":685,"x_min":0,"x_max":656,"o":"m 640 568 q 638 441 656 494 q 584 350 621 388 q 497 290 547 313 q 392 254 446 268 q 286 236 338 240 q 201 232 235 232 q 210 124 207 165 q 215 81 214 83 q 234 68 218 78 q 269 49 250 58 q 318 21 292 36 l 71 3 q 92 21 81 13 q 117 54 111 40 q 124 137 124 71 q 122 292 125 203 q 116 481 119 381 q 106 671 113 582 q 94 824 100 760 q 81 907 88 889 q 66 924 78 914 q 39 944 54 933 q 0 969 22 957 l 206 969 q 183 950 193 958 q 168 933 176 942 q 158 919 160 925 q 159 889 158 918 q 164 813 160 860 q 344 824 263 828 q 484 792 425 819 q 583 710 543 764 q 640 568 622 656 m 196 301 q 261 299 224 300 q 338 304 299 299 q 415 324 376 310 q 484 364 454 338 q 531 432 514 390 q 547 533 549 474 q 492 669 538 625 q 388 730 447 714 q 268 741 329 746 q 168 728 207 736 q 174 627 171 682 q 181 517 178 572 q 189 406 185 461 q 196 301 193 351 z "},"ÿ":{"ha":764,"x_min":0,"x_max":744,"o":"m 0 971 l 163 964 l 143 949 q 131 936 136 943 q 124 926 125 929 q 360 560 124 924 q 581 904 582 901 q 569 918 578 910 q 551 936 561 926 q 526 960 540 947 l 744 951 l 681 893 l 413 482 l 438 49 l 497 1 l 247 1 q 318 46 304 35 q 335 64 332 57 q 336 89 336 68 q 336 142 336 110 q 335 213 336 174 q 332 292 333 251 q 322 490 326 386 q 160 742 199 686 q 88 847 122 799 q 29 929 54 894 q 0 971 4 964 m 288 986 q 260 969 276 969 q 229 978 243 968 q 215 1006 217 989 q 222 1039 213 1024 q 248 1054 232 1051 q 276 1047 264 1057 q 292 1017 290 1035 q 288 986 294 1000 m 379 1021 q 402 1035 389 1035 q 426 1028 415 1036 q 440 1002 438 1017 q 435 974 442 988 q 412 959 425 961 q 385 968 399 957 q 373 992 375 976 q 379 1021 371 1008 z "},"Ą":{"ha":701,"x_min":0,"x_max":667,"o":"m 550 7 q 532 -35 532 -15 q 539 -81 531 -61 q 562 -112 547 -101 q 590 -125 576 -122 q 622 -125 611 -129 l 622 -186 q 610 -188 622 -187 q 576 -183 599 -189 q 529 -154 554 -176 q 503 -103 508 -132 q 500 -44 497 -75 q 507 3 503 -14 l 550 7 m 0 0 l 286 928 l 667 13 l 507 3 l 539 43 l 278 697 l 194 388 l 421 403 l 436 333 l 179 318 l 90 36 l 125 0 l 1 1 l 0 0 z "},"ą":{"ha":701,"x_min":0,"x_max":667,"o":"m 550 7 q 532 -35 532 -15 q 539 -81 531 -61 q 562 -112 547 -101 q 590 -125 576 -122 q 622 -125 611 -129 l 622 -186 q 610 -188 622 -187 q 576 -183 599 -189 q 529 -154 554 -176 q 503 -103 508 -132 q 500 -44 497 -75 q 507 3 503 -14 l 550 7 m 0 0 l 286 928 l 667 13 l 507 3 l 539 43 l 278 697 l 194 388 l 421 403 l 436 333 l 179 318 l 90 36 l 125 0 l 1 1 l 0 0 z "},"Ć":{"ha":722,"x_min":10,"x_max":657,"o":"m 657 956 l 611 844 q 360 857 469 881 q 269 822 313 846 q 192 752 225 797 q 142 638 160 707 q 129 468 124 568 q 155 290 133 361 q 208 176 176 219 q 278 110 239 132 q 358 83 318 89 q 569 122 453 69 l 617 15 q 307 26 442 -12 q 195 75 249 42 q 100 163 142 108 q 34 299 58 217 q 14 494 10 381 q 72 703 19 611 q 213 858 125 796 q 415 945 300 919 q 657 956 531 971 m 429 1115 l 464 1082 l 346 963 l 325 979 l 429 1115 m 429 1115 l 464 1082 l 346 963 l 325 979 l 429 1115 z "},"ć":{"ha":722,"x_min":10,"x_max":657,"o":"m 657 956 l 611 844 q 360 857 469 881 q 269 822 313 846 q 192 752 225 797 q 142 638 160 707 q 129 468 124 568 q 155 290 133 361 q 208 176 176 219 q 278 110 239 132 q 358 83 318 89 q 569 122 453 69 l 617 15 q 307 26 442 -12 q 195 75 249 42 q 100 163 142 108 q 34 299 58 217 q 14 494 10 381 q 72 703 19 611 q 213 858 125 796 q 415 945 300 919 q 657 956 531 971 m 429 1115 l 464 1082 l 346 963 l 325 979 l 429 1115 m 429 1115 l 464 1082 l 346 963 l 325 979 l 429 1115 z "},"Ę":{"ha":706,"x_min":0,"x_max":642,"o":"m 550 3 q 532 -35 532 -19 q 539 -81 531 -61 q 562 -112 547 -101 q 590 -125 576 -122 q 622 -125 611 -129 l 622 -186 q 610 -188 622 -187 q 576 -183 599 -189 q 529 -154 554 -176 q 503 -103 508 -132 q 500 -44 497 -75 q 507 3 503 -14 l 550 3 m 507 3 m 0 924 l 642 914 l 640 758 q 586 801 611 781 q 533 842 561 821 l 158 846 l 161 529 l 422 542 l 422 457 l 163 457 l 172 75 q 485 82 483 81 q 600 153 489 83 l 600 3 l 33 3 l 33 75 l 74 72 l 74 849 l 0 849 l 0 924 z "},"ę":{"ha":706,"x_min":0,"x_max":642,"o":"m 550 3 q 532 -35 532 -19 q 539 -81 531 -61 q 562 -112 547 -101 q 590 -125 576 -122 q 622 -125 611 -129 l 622 -186 q 610 -188 622 -187 q 576 -183 599 -189 q 529 -154 554 -176 q 503 -103 508 -132 q 500 -44 497 -75 q 507 3 503 -14 l 550 3 m 507 3 m 0 924 l 642 914 l 640 758 q 586 801 611 781 q 533 842 561 821 l 158 846 l 161 529 l 422 542 l 422 457 l 163 457 l 172 75 q 485 82 483 81 q 600 153 489 83 l 600 3 l 33 3 l 33 75 l 74 72 l 74 849 l 0 849 l 0 924 z "},"Ł":{"ha":676,"x_min":-156,"x_max":624,"o":"m -97 299 l -156 360 l 381 693 l 386 636 l -97 299 m 1 972 l 213 972 q 152 928 161 939 q 142 915 143 918 q 139 876 140 914 q 136 76 138 838 q 554 90 550 86 q 624 171 561 92 l 622 1 l 46 -1 l 40 938 q 1 972 22 953 z "},"ł":{"ha":676,"x_min":-156,"x_max":624,"o":"m -97 299 l -156 360 l 381 693 l 386 636 l -97 299 m 1 972 l 213 972 q 152 928 161 939 q 142 915 143 918 q 139 876 140 914 q 136 76 138 838 q 554 90 550 86 q 624 171 561 92 l 622 1 l 46 -1 l 40 938 q 1 972 22 953 z "},"Ń":{"ha":724,"x_min":-3,"x_max":660,"o":"m 0 924 m 368 1107 l 403 1074 l 285 954 l 264 971 l 368 1107 m 368 1107 l 403 1074 l 285 954 l 264 971 l 368 1107 m 6 917 l 108 921 l 585 276 q 575 917 576 913 q 561 931 571 921 q 540 950 551 940 l 511 969 l 651 971 l 660 3 l 85 768 q 113 60 111 67 q 128 42 117 53 q 151 22 139 31 q 185 1 167 11 l -3 1 l 36 46 l 6 917 z "},"ń":{"ha":724,"x_min":-3,"x_max":660,"o":"m 0 924 m 368 1107 l 403 1074 l 285 954 l 264 971 l 368 1107 m 368 1107 l 403 1074 l 285 954 l 264 971 l 368 1107 m 6 917 l 108 921 l 585 276 q 575 917 576 913 q 561 931 571 921 q 540 950 551 940 l 511 969 l 651 971 l 660 3 l 85 768 q 113 60 111 67 q 128 42 117 53 q 151 22 139 31 q 185 1 167 11 l -3 1 l 36 46 l 6 917 z "},"Œ":{"ha":951,"x_min":1,"x_max":900,"o":"m 900 965 q 899 786 899 783 q 884 806 899 789 q 850 842 869 822 q 814 878 831 861 q 792 896 797 894 q 503 886 789 896 l 513 558 l 754 571 l 754 481 l 514 481 l 522 76 q 757 85 756 83 q 853 158 760 86 l 853 0 l 389 0 q 191 64 265 10 q 75 190 117 118 q 19 341 33 263 q 3 478 4 419 q 6 567 1 517 q 28 672 11 618 q 74 776 44 725 q 151 870 103 828 q 269 940 200 913 q 435 969 339 967 l 900 965 m 107 518 q 122 356 107 438 q 175 211 138 275 q 272 109 213 147 q 426 76 331 71 l 425 886 q 289 862 344 886 q 201 801 233 838 q 148 719 168 764 q 119 635 128 675 q 108 563 110 594 q 107 518 107 531 z "},"œ":{"ha":951,"x_min":1,"x_max":900,"o":"m 900 965 q 899 786 899 783 q 884 806 899 789 q 850 842 869 822 q 814 878 831 861 q 792 896 797 894 q 503 886 789 896 l 513 558 l 754 571 l 754 481 l 514 481 l 522 76 q 757 85 756 83 q 853 158 760 86 l 853 0 l 389 0 q 191 64 265 10 q 75 190 117 118 q 19 341 33 263 q 3 478 4 419 q 6 567 1 517 q 28 672 11 618 q 74 776 44 725 q 151 870 103 828 q 269 940 200 913 q 435 969 339 967 l 900 965 m 107 518 q 122 356 107 438 q 175 211 138 275 q 272 109 213 147 q 426 76 331 71 l 425 886 q 289 862 344 886 q 201 801 233 838 q 148 719 168 764 q 119 635 128 675 q 108 563 110 594 q 107 518 107 531 z "},"Ś":{"ha":549,"x_min":1,"x_max":476,"o":"m 191 981 l 211 964 l 330 1084 l 294 1117 l 191 981 m 191 981 l 211 964 l 330 1084 l 294 1117 l 191 981 m 460 969 l 460 878 q 418 889 443 883 q 372 895 393 894 q 309 888 350 896 q 228 854 268 881 q 149 785 188 828 q 108 663 111 743 q 142 565 108 608 q 213 495 175 522 q 296 442 251 468 q 380 385 340 417 q 447 313 419 354 q 475 213 474 272 q 460 131 476 165 q 415 72 443 96 q 351 33 388 47 q 278 13 315 19 q 74 6 189 -4 l 104 167 q 118 128 113 146 q 131 99 125 113 q 143 78 138 85 q 171 71 147 74 q 225 72 194 68 q 289 87 256 75 q 344 122 322 99 q 371 185 367 146 q 349 282 375 224 q 285 359 319 329 q 214 411 251 389 q 140 452 176 433 q 75 494 104 471 q 26 551 46 518 q 4 635 6 583 q 38 776 1 713 q 137 883 74 839 q 283 949 200 926 q 460 969 365 972 z "},"ś":{"ha":549,"x_min":1,"x_max":476,"o":"m 460 969 l 460 878 q 418 889 443 883 q 372 895 393 894 q 309 888 350 896 q 228 854 268 881 q 149 785 188 828 q 108 663 111 743 q 142 565 108 608 q 213 495 175 522 q 296 442 251 468 q 380 385 340 417 q 447 313 419 354 q 475 213 474 272 q 460 131 476 165 q 415 72 443 96 q 351 33 388 47 q 278 13 315 19 q 74 6 189 -4 l 104 167 q 118 128 113 146 q 131 99 125 113 q 143 78 138 85 q 171 71 147 74 q 225 72 194 68 q 289 87 256 75 q 344 122 322 99 q 371 185 367 146 q 349 282 375 224 q 285 359 319 329 q 214 411 251 389 q 140 452 176 433 q 75 494 104 471 q 26 551 46 518 q 4 635 6 583 q 38 776 1 713 q 137 883 74 839 q 283 949 200 926 q 460 969 365 972 m 191 981 l 211 964 l 330 1084 l 294 1117 l 191 981 m 191 981 l 211 964 l 330 1084 l 294 1117 l 191 981 z "},"Š":{"ha":542,"x_min":1,"x_max":476,"o":"m 460 969 l 460 878 q 418 889 443 883 q 372 895 393 894 q 309 888 350 896 q 228 854 268 881 q 149 785 188 828 q 108 663 111 743 q 142 565 108 608 q 213 495 175 522 q 296 442 251 468 q 380 385 340 417 q 447 313 419 354 q 475 213 474 272 q 460 131 476 165 q 415 72 443 96 q 351 33 388 47 q 278 13 315 19 q 74 6 189 -4 l 104 167 q 118 128 113 146 q 131 99 125 113 q 143 78 138 85 q 171 71 147 74 q 225 72 194 68 q 289 87 256 75 q 344 122 322 99 q 371 185 367 146 q 349 282 375 224 q 285 359 319 329 q 214 411 251 389 q 140 452 176 433 q 75 494 104 471 q 26 551 46 518 q 4 635 6 583 q 38 776 1 713 q 137 883 74 839 q 283 949 200 926 q 460 969 365 972 m 154 1104 l 196 1117 l 243 993 l 338 1081 l 361 1069 l 238 963 l 154 1104 z "},"š":{"ha":549,"x_min":1,"x_max":476,"o":"m 460 969 l 460 878 q 418 889 443 883 q 372 895 393 894 q 309 888 350 896 q 228 854 268 881 q 149 785 188 828 q 108 663 111 743 q 142 565 108 608 q 213 495 175 522 q 296 442 251 468 q 380 385 340 417 q 447 313 419 354 q 475 213 474 272 q 460 131 476 165 q 415 72 443 96 q 351 33 388 47 q 278 13 315 19 q 74 6 189 -4 l 104 167 q 118 128 113 146 q 131 99 125 113 q 143 78 138 85 q 171 71 147 74 q 225 72 194 68 q 289 87 256 75 q 344 122 322 99 q 371 185 367 146 q 349 282 375 224 q 285 359 319 329 q 214 411 251 389 q 140 452 176 433 q 75 494 104 471 q 26 551 46 518 q 4 635 6 583 q 38 776 1 713 q 137 883 74 839 q 283 949 200 926 q 460 969 365 972 m 136 1092 l 178 1104 l 225 981 l 319 1068 l 343 1057 l 219 950 l 136 1092 z "},"Ÿ":{"ha":764,"x_min":0,"x_max":744,"o":"m 0 971 l 163 964 l 143 949 q 131 936 136 943 q 124 926 125 929 q 360 560 124 924 q 581 904 582 901 q 569 918 578 910 q 551 936 561 926 q 526 960 540 947 l 744 951 l 681 893 l 413 482 l 438 49 l 497 1 l 247 1 q 318 46 304 35 q 335 64 332 57 q 336 89 336 68 q 336 142 336 110 q 335 213 336 174 q 332 292 333 251 q 322 490 326 386 q 160 742 199 686 q 88 847 122 799 q 29 929 54 894 q 0 971 4 964 m 288 986 q 260 969 276 969 q 229 978 243 968 q 215 1006 217 989 q 222 1039 213 1024 q 248 1054 232 1051 q 276 1047 264 1057 q 292 1017 290 1035 q 288 986 294 1000 m 379 1021 q 402 1035 389 1035 q 426 1028 415 1036 q 440 1002 438 1017 q 435 974 442 988 q 412 959 425 961 q 385 968 399 957 q 373 992 375 976 q 379 1021 371 1008 z "},"Ź":{"ha":710,"x_min":1,"x_max":660,"o":"m 624 964 l 142 114 q 569 107 567 106 q 622 149 606 135 q 658 186 640 165 l 660 6 l 1 26 l 490 875 l 139 853 q 94 813 113 838 q 44 760 69 789 l 40 939 l 624 964 m 381 1138 l 415 1104 l 297 985 l 276 1001 l 381 1138 m 381 1138 l 415 1104 l 297 985 l 276 1001 l 381 1138 z "},"ź":{"ha":710,"x_min":1,"x_max":660,"o":"m 624 964 l 142 114 q 569 107 567 106 q 622 149 606 135 q 658 186 640 165 l 660 6 l 1 26 l 490 875 l 139 853 q 94 813 113 838 q 44 760 69 789 l 40 939 l 624 964 m 277 1003 l 298 987 l 416 1106 l 381 1139 l 277 1003 m 277 1003 l 298 987 l 416 1106 l 381 1139 l 277 1003 z "},"Ż":{"ha":710,"x_min":1,"x_max":660,"o":"m 314 1011 q 290 1044 296 1024 q 296 1082 285 1064 q 331 1100 310 1099 q 371 1088 351 1101 q 394 1054 389 1075 q 388 1017 400 1033 q 355 999 375 1000 q 314 1011 335 997 m 624 964 l 142 114 q 569 107 567 106 q 622 149 606 135 q 658 186 640 165 l 660 6 l 1 26 l 490 875 l 139 853 q 94 813 113 838 q 44 760 69 789 l 40 939 l 624 964 z "},"ż":{"ha":710,"x_min":1,"x_max":660,"o":"m 314 1011 q 290 1044 296 1024 q 296 1082 285 1064 q 331 1100 310 1099 q 371 1088 351 1101 q 394 1054 389 1075 q 388 1017 400 1033 q 355 999 375 1000 q 314 1011 335 997 m 624 964 l 142 114 q 569 107 567 106 q 622 149 606 135 q 658 186 640 165 l 660 6 l 1 26 l 490 875 l 139 853 q 94 813 113 838 q 44 760 69 789 l 40 939 l 624 964 z "},"Ž":{"ha":722,"x_min":1,"x_max":660,"o":"m 624 964 l 142 114 q 569 107 567 106 q 622 149 606 135 q 658 186 640 165 l 660 6 l 1 26 l 490 875 l 139 853 q 94 813 117 840 q 44 760 69 789 l 40 939 l 624 964 m 260 1107 l 301 1119 l 349 996 l 443 1083 l 467 1072 l 343 965 l 260 1107 z "},"ž":{"ha":722,"x_min":1,"x_max":660,"o":"m 624 964 l 142 114 q 569 107 567 106 q 622 149 606 135 q 658 186 640 165 l 660 6 l 1 26 l 490 875 l 139 853 q 94 813 117 840 q 44 760 69 789 l 40 939 l 624 964 m 257 1106 l 299 1118 l 346 994 l 440 1082 l 464 1071 l 340 964 l 257 1106 z "},"ˆ":{"ha":299,"x_min":1,"x_max":271,"o":"m 1 764 l 111 1007 l 271 824 l 240 807 l 119 954 l 57 744 l 1 764 l 1 764 z "},"ˇ":{"ha":278,"x_min":0,"x_max":207,"o":"m 0 749 l 42 761 l 89 638 l 183 725 l 207 714 l 83 607 l 0 749 z "},"˘":{"ha":229,"x_min":0,"x_max":160,"o":"m 160 961 q 136 928 149 943 q 110 905 125 915 q 76 894 96 894 q 38 905 53 894 q 15 928 24 915 q 0 961 6 943 l 22 964 q 33 940 26 951 q 49 922 40 931 q 74 910 58 913 q 99 916 88 907 q 118 936 111 925 q 133 965 126 949 l 160 961 l 160 961 z "},"˚":{"ha":203,"x_min":0,"x_max":0,"o":""},"˜":{"ha":278,"x_min":0,"x_max":192,"o":"m 0 713 q 31 744 15 729 q 56 766 42 756 q 83 781 71 776 q 103 773 96 782 q 118 753 111 764 q 131 733 125 742 q 146 725 138 725 q 156 736 151 725 q 163 763 160 747 q 168 799 167 776 l 192 793 q 178 747 185 767 q 165 715 172 729 q 149 701 157 701 q 128 708 135 700 q 115 726 121 715 q 103 748 110 738 q 86 758 97 758 q 63 748 74 758 q 43 725 53 738 q 22 693 32 713 l 0 713 z "},"Ё":{"ha":692,"x_min":0,"x_max":643,"o":"m 0 972 l 643 963 l 642 799 q 588 843 613 822 q 535 886 563 864 l 158 890 l 161 557 l 424 569 l 424 481 l 163 481 l 172 79 q 486 86 485 85 q 601 161 490 88 l 601 3 l 33 3 l 33 79 l 74 76 l 74 893 l 0 893 l 0 972 m 282 1057 q 253 1040 271 1042 q 224 1049 236 1039 q 208 1077 210 1060 q 217 1110 206 1094 q 242 1125 226 1122 q 271 1118 258 1128 q 287 1088 285 1106 q 282 1057 289 1071 m 374 1092 q 395 1106 382 1106 q 421 1100 408 1107 q 433 1073 432 1088 q 429 1044 435 1058 q 406 1030 419 1032 q 378 1039 393 1028 q 367 1063 369 1047 q 374 1092 365 1079 z "},"А":{"ha":689,"x_min":0,"x_max":667,"o":"m 0 0 l 286 979 l 667 14 l 507 3 l 539 46 l 278 736 l 194 408 l 421 425 l 436 351 l 179 336 l 90 38 l 125 0 l 1 1 l 0 0 z "},"Б":{"ha":685,"x_min":0,"x_max":639,"o":"m 264 554 q 451 524 367 550 q 522 488 488 510 q 585 426 556 467 q 626 348 614 386 q 638 263 639 310 q 608 155 636 200 q 535 79 581 110 q 431 31 490 49 q 306 7 372 14 q 171 1 239 0 q 38 10 103 3 q 37 50 38 36 q 36 71 36 64 q 36 82 36 79 q 36 86 36 83 q 161 67 107 71 q 280 68 215 64 q 399 93 344 72 q 493 159 454 114 q 536 283 532 204 q 510 376 536 340 q 441 435 483 413 q 347 464 399 457 q 253 472 296 471 q 181 472 210 474 q 151 469 151 469 q 151 483 151 471 q 153 513 151 497 q 151 556 153 531 q 264 554 174 558 m 607 786 l 549 876 l 526 893 q 151 894 160 894 l 182 33 l 79 39 q 83 892 83 892 q 69 892 82 892 q 40 890 57 892 l 0 888 l 1 971 q 86 971 32 971 q 615 965 122 972 l 607 786 z "},"В":{"ha":685,"x_min":0,"x_max":639,"o":"m 1 971 q 80 972 32 971 q 181 970 128 972 q 288 958 233 968 q 387 927 343 947 q 459 872 431 907 q 490 782 488 836 q 458 665 493 714 q 378 585 422 615 q 274 539 325 551 q 451 524 367 550 q 522 488 488 510 q 585 426 556 467 q 626 348 614 386 q 638 263 639 310 q 608 155 636 200 q 535 79 581 110 q 431 31 490 49 q 306 7 372 14 q 171 1 239 0 q 38 10 103 3 q 37 50 38 36 q 36 72 36 64 q 36 81 36 79 q 36 86 36 83 q 161 67 107 71 q 280 68 215 64 q 399 93 344 72 q 493 159 454 114 q 536 283 532 204 q 510 376 536 340 q 441 435 483 413 q 347 464 399 457 q 253 472 296 471 q 181 472 210 474 q 151 470 151 469 q 151 484 151 471 q 153 513 151 497 q 154 563 153 531 q 283 600 226 575 q 331 626 307 611 q 372 663 354 640 q 398 713 389 685 q 406 778 407 742 q 385 840 404 817 q 338 875 367 863 q 278 892 310 888 q 217 896 246 896 q 151 894 189 896 l 182 33 l 79 39 q 83 892 83 892 q 69 892 82 892 q 40 890 57 892 l 0 888 l 1 971 z "},"Г":{"ha":696,"x_min":0,"x_max":654,"o":"m 0 969 l 654 967 l 650 782 q 618 829 633 807 q 592 865 606 847 q 569 885 579 882 q 543 887 565 886 q 142 883 521 888 q 164 75 163 79 q 257 1 167 68 l 14 1 q 68 57 67 51 q 63 477 68 60 q 61 888 57 894 l 3 888 l 0 969 z "},"Д":{"ha":1029,"x_min":17,"x_max":1010,"o":"m 694 82 l 443 735 l 269 81 l 694 82 m 808 81 q 979 85 842 85 l 1010 -243 l 929 -247 l 908 3 l 865 3 l 476 1 l 204 1 l 204 1 l 115 -1 l 99 -253 l 17 -249 l 47 79 l 190 85 l 451 982 l 808 81 z "},"Е":{"ha":692,"x_min":0,"x_max":643,"o":"m 0 972 l 643 963 l 642 799 q 588 843 613 822 q 535 886 563 864 l 158 890 l 161 557 l 424 569 l 424 481 l 163 481 l 172 79 q 486 86 485 85 q 601 161 490 88 l 601 3 l 33 3 l 33 79 l 74 76 l 74 893 l 0 893 l 0 972 z "},"Ж":{"ha":1244,"x_min":17,"x_max":1215,"o":"m 493 969 l 733 968 l 693 940 q 651 908 651 911 l 658 653 l 1071 925 l 1135 868 l 786 663 l 1215 143 l 1128 71 l 722 622 l 656 582 l 669 60 q 707 31 671 56 l 744 6 l 503 3 q 575 58 575 57 q 571 583 572 381 l 510 622 l 104 69 l 17 143 l 444 663 l 96 868 l 160 925 l 571 654 q 569 903 569 903 q 493 969 568 903 z "},"З":{"ha":513,"x_min":7,"x_max":483,"o":"m 207 506 q 128 503 161 518 l 124 556 q 225 613 194 586 q 285 686 256 639 q 307 783 311 744 q 281 846 303 822 q 225 881 258 869 q 161 897 192 893 q 107 897 131 900 q 79 890 83 894 q 67 869 74 883 q 54 840 60 856 q 40 801 49 822 l 8 963 q 214 956 124 972 q 287 935 251 949 q 350 897 322 921 q 394 838 378 872 q 410 756 411 803 q 381 655 408 696 q 325 591 354 614 q 265 547 296 568 q 418 450 361 504 q 458 374 450 413 q 403 146 483 250 q 176 14 304 44 q 8 -3 108 -3 q 7 86 8 28 q 106 69 81 69 q 336 203 246 82 q 335 389 382 311 q 207 506 286 458 z "},"И":{"ha":744,"x_min":21,"x_max":664,"o":"m 524 4 q 561 60 543 28 q 546 672 563 171 l 118 7 l 115 1 l 22 1 l 21 967 l 172 972 q 129 899 169 975 q 118 142 122 875 l 625 963 l 664 3 l 524 4 z "},"Й":{"ha":749,"x_min":25,"x_max":667,"o":"m 318 1165 l 385 989 l 496 1118 l 547 1086 l 372 903 l 224 1138 l 318 1165 m 667 3 l 629 963 l 121 142 q 133 899 126 875 q 175 972 174 975 l 25 967 l 26 1 l 118 1 l 121 7 l 549 672 q 565 60 567 171 q 526 4 547 28 l 667 3 z "},"К":{"ha":708,"x_min":0,"x_max":678,"o":"m 0 971 l 196 968 l 156 940 q 114 908 114 911 l 121 653 l 535 925 l 597 868 l 249 663 l 678 143 l 590 71 l 185 622 l 118 582 l 132 60 q 169 31 133 56 l 207 6 l 4 0 q 38 58 38 57 q 32 931 32 929 q 0 971 31 931 z "},"Л":{"ha":689,"x_min":0,"x_max":667,"o":"m 0 0 l 286 979 l 667 14 l 507 3 l 539 46 l 278 736 l 90 38 l 125 0 l 1 1 l 0 0 z "},"М":{"ha":851,"x_min":1,"x_max":771,"o":"m 14 971 l 192 967 l 442 414 l 683 911 l 771 917 l 769 43 l 606 42 q 635 56 621 49 q 674 79 646 61 q 678 757 675 81 l 414 225 l 132 842 q 149 47 146 49 q 171 35 151 43 q 251 1 190 26 l 1 1 q 35 26 18 14 q 58 48 47 38 q 71 64 69 58 q 67 485 71 68 q 63 904 64 903 q 52 919 60 908 q 36 943 44 931 q 14 971 26 957 z "},"Н":{"ha":725,"x_min":1,"x_max":644,"o":"m 504 4 q 542 60 524 28 q 536 317 543 171 l 99 299 l 96 1 l 3 1 l 1 967 l 153 972 q 110 899 150 975 q 99 371 103 875 l 532 382 l 506 957 l 606 963 l 644 3 l 504 4 z "},"О":{"ha":888,"x_min":4,"x_max":839,"o":"m 413 974 q 617 931 525 972 q 694 885 657 914 q 763 810 732 856 q 814 702 794 765 q 838 557 833 639 q 804 317 839 419 q 711 144 769 214 q 578 39 653 75 q 426 1 504 3 q 272 29 349 0 q 134 122 194 58 q 39 283 74 185 q 13 518 4 382 q 55 729 18 646 q 140 863 92 813 q 255 942 189 913 q 413 974 321 972 m 721 478 q 710 647 728 576 q 662 768 693 718 q 593 849 631 818 q 513 898 556 881 q 417 917 469 915 q 388 916 410 917 q 338 909 367 915 q 280 887 310 903 q 218 841 250 871 q 163 753 186 811 q 129 610 139 694 q 138 378 114 482 q 207 202 161 275 q 314 91 253 129 q 435 56 375 53 q 510 67 465 56 q 597 121 554 79 q 675 247 640 163 q 721 478 710 331 z "},"П":{"ha":725,"x_min":-1,"x_max":661,"o":"m 6 950 l 625 971 l 661 1 l 543 0 l 575 56 l 550 897 l 86 883 q 114 58 113 65 q 128 41 117 53 q 151 22 140 29 q 185 0 168 10 l -1 0 l 36 46 l 6 950 z "},"Р":{"ha":672,"x_min":1,"x_max":618,"o":"m 1 957 q 308 965 172 975 q 422 947 367 960 q 520 912 476 933 q 591 857 564 890 q 618 776 618 824 q 594 672 618 714 q 529 604 569 631 q 439 565 489 578 q 338 547 389 553 q 164 536 286 542 q 111 543 118 536 q 117 560 104 550 q 163 592 129 571 q 350 608 269 589 q 417 629 385 617 q 474 660 450 642 q 510 702 499 678 q 518 760 522 726 q 463 853 507 822 q 362 894 418 883 q 248 902 306 906 q 154 894 190 899 q 183 89 183 90 q 198 74 186 86 q 224 49 210 61 q 260 14 240 32 l 42 4 q 61 21 53 14 q 76 35 69 29 q 83 44 82 42 q 76 886 83 47 l 6 878 l 1 957 z "},"С":{"ha":722,"x_min":10,"x_max":657,"o":"m 657 956 l 611 844 q 360 857 469 881 q 269 822 313 846 q 192 752 225 797 q 142 638 160 707 q 129 468 124 568 q 155 290 133 361 q 208 176 176 219 q 278 110 239 132 q 358 83 318 89 q 569 122 453 69 l 617 15 q 307 26 442 -12 q 195 75 249 42 q 100 163 142 108 q 34 299 58 217 q 14 494 10 381 q 72 703 19 611 q 213 858 125 796 q 415 945 300 919 q 657 956 531 971 z "},"Т":{"ha":764,"x_min":1,"x_max":715,"o":"m 713 969 l 715 811 q 696 843 706 826 q 680 867 689 856 q 664 883 671 879 q 374 882 656 889 q 400 85 400 88 q 431 43 401 76 l 465 0 l 203 1 q 275 49 261 38 q 296 65 289 60 q 283 881 301 72 q 67 878 72 879 l 38 847 q 1 806 21 828 l 3 942 l 713 969 z "},"У":{"ha":764,"x_min":0,"x_max":744,"o":"m 0 971 l 163 964 l 143 949 q 131 936 136 943 q 124 926 125 929 q 465 554 124 924 q 581 904 582 901 q 569 918 578 910 q 551 936 561 926 q 526 960 540 947 l 744 951 l 681 893 l 383 49 l 443 1 l 193 1 q 264 46 250 35 q 281 64 278 57 q 428 485 282 68 q 88 847 122 799 q 29 929 54 894 q 0 971 4 964 z "},"Ф":{"ha":888,"x_min":4,"x_max":839,"o":"m 322 972 q 515 971 419 968 q 472 911 453 914 q 617 881 550 904 q 694 844 657 867 q 763 784 732 821 q 814 697 794 747 q 838 581 833 647 q 804 389 839 471 q 711 251 769 307 q 590 171 653 196 q 472 140 526 146 q 474 75 474 103 q 557 1 492 53 q 314 -1 433 1 q 379 74 356 26 q 379 139 379 115 q 260 163 325 143 q 134 233 194 182 q 39 362 74 283 q 13 550 4 440 q 55 719 18 653 q 140 826 92 785 q 248 888 189 867 q 381 913 307 908 q 322 972 374 928 m 468 183 q 478 183 468 182 q 506 188 489 183 q 547 203 524 193 q 593 231 569 213 q 640 278 617 250 q 682 347 664 306 q 724 550 721 458 q 690 707 728 642 q 632 783 661 754 q 576 827 603 811 q 522 851 549 843 q 472 864 496 858 l 469 524 q 469 400 469 461 q 468 291 468 339 q 468 213 468 243 q 468 183 468 183 m 381 186 q 381 217 381 188 q 380 294 381 246 q 379 403 379 342 q 378 528 379 464 q 376 867 376 676 q 315 856 346 863 q 256 835 285 850 q 201 791 226 819 q 153 714 175 763 q 129 628 136 668 q 124 547 122 588 q 135 460 125 506 q 164 358 146 414 q 208 294 183 321 q 256 248 232 267 q 302 218 279 229 q 342 201 325 207 q 370 192 360 194 q 381 186 381 189 z "},"Х":{"ha":779,"x_min":1,"x_max":747,"o":"m 654 3 l 358 440 l 76 36 l 1 81 l 313 513 l 40 918 l 142 972 l 379 593 l 600 931 l 679 903 l 426 525 l 747 65 l 654 3 z "},"Ц":{"ha":876,"x_min":28,"x_max":842,"o":"m 550 4 l 132 0 l 129 1 l 36 1 l 28 960 l 185 961 q 128 913 163 954 q 132 72 136 889 l 544 83 l 529 844 l 532 897 q 497 934 517 918 q 457 964 478 950 l 665 968 l 632 899 l 654 96 l 811 90 l 842 -237 l 760 -242 l 743 10 l 550 4 z "},"Ч":{"ha":732,"x_min":33,"x_max":733,"o":"m 515 958 l 733 949 l 660 892 q 671 65 671 68 q 677 53 671 63 q 692 32 683 44 q 714 1 701 17 l 504 10 q 540 50 524 31 q 567 83 556 68 q 579 101 579 97 q 579 428 578 104 q 457 440 515 432 q 370 454 408 447 q 321 464 332 461 l 257 482 q 153 525 199 500 q 63 658 92 567 q 56 958 33 749 l 222 954 l 146 906 l 129 885 q 150 665 119 725 q 210 580 181 606 q 284 537 239 554 q 369 510 329 519 q 582 486 464 489 l 583 897 l 515 958 z "},"Ш":{"ha":976,"x_min":21,"x_max":915,"o":"m 801 4 l 125 0 l 122 1 l 29 1 l 21 954 l 178 954 q 121 906 156 947 q 125 72 129 882 l 433 76 l 450 868 l 517 871 l 538 79 l 796 83 l 781 843 l 783 896 q 749 934 768 918 q 708 963 729 950 l 915 968 l 882 899 l 908 3 l 801 4 z "},"Щ":{"ha":1124,"x_min":24,"x_max":1096,"o":"m 804 4 l 128 0 l 125 1 l 32 1 l 24 954 l 181 954 q 125 906 160 947 q 128 72 133 882 l 436 76 l 454 868 l 519 871 l 542 79 l 799 83 l 783 843 l 786 896 q 751 934 771 918 q 711 963 732 950 l 919 968 l 886 899 l 908 96 l 1065 90 l 1096 -237 l 1014 -242 l 997 10 l 804 4 z "},"Ъ":{"ha":725,"x_min":3,"x_max":699,"o":"m 324 554 q 511 524 426 550 q 581 488 547 510 q 644 426 615 467 q 686 348 674 386 q 697 263 699 310 q 668 155 696 200 q 595 79 640 110 q 491 31 550 49 q 365 7 432 14 q 231 1 299 0 q 97 10 163 3 q 97 50 97 36 q 96 71 96 64 q 96 82 96 79 q 96 86 96 83 q 221 67 167 71 q 340 68 275 64 q 459 93 404 72 q 553 159 514 114 q 596 283 592 204 q 569 376 596 340 q 501 435 543 413 q 407 464 458 457 q 313 472 356 471 q 240 472 269 474 q 211 469 211 469 q 211 483 211 471 q 213 513 211 497 q 211 556 213 531 q 324 554 232 558 m 271 972 q 272 890 271 929 q 217 889 232 888 l 242 33 l 139 39 q 143 892 143 892 q 87 891 142 892 q 3 889 32 890 l 3 971 q 139 972 17 971 q 229 972 182 972 l 271 972 z "},"Ы":{"ha":894,"x_min":18,"x_max":850,"o":"m 264 554 q 451 524 367 550 q 522 488 488 510 q 585 426 556 467 q 626 348 614 386 q 638 263 639 310 q 608 155 636 200 q 535 79 581 110 q 431 31 490 49 q 306 7 372 14 q 171 1 239 0 q 38 10 103 3 q 37 50 38 36 q 36 71 36 64 q 36 82 36 79 q 36 86 36 83 q 161 67 107 71 q 280 68 215 64 q 399 93 344 72 q 493 159 454 114 q 536 283 532 204 q 510 376 536 340 q 441 435 483 413 q 347 464 399 457 q 253 472 296 471 q 181 472 210 474 q 151 469 151 469 q 151 483 151 471 q 153 513 151 497 q 151 556 153 531 q 264 554 174 558 m 206 974 q 157 922 179 946 l 182 33 l 79 39 q 83 892 83 892 q 75 907 82 892 q 53 939 68 922 l 18 971 q 79 972 32 971 q 169 971 122 972 l 206 974 m 618 968 l 808 968 q 785 947 794 956 q 770 931 779 939 q 760 917 761 922 q 763 496 760 915 q 767 75 765 76 q 850 0 769 71 l 621 -3 q 667 49 661 33 q 673 476 669 54 q 676 903 676 899 q 664 921 672 911 q 618 968 656 931 z "},"Ь":{"ha":663,"x_min":18,"x_max":639,"o":"m 264 554 q 451 524 367 550 q 522 488 488 510 q 585 426 556 467 q 626 348 614 386 q 638 263 639 310 q 608 155 636 200 q 535 79 581 110 q 431 31 490 49 q 306 7 372 14 q 171 1 239 0 q 38 10 103 3 q 37 50 38 36 q 36 71 36 64 q 36 82 36 79 q 36 86 36 83 q 161 67 107 71 q 280 68 215 64 q 399 93 344 72 q 493 159 454 114 q 536 283 532 204 q 510 376 536 340 q 441 435 483 413 q 347 464 399 457 q 253 472 296 471 q 181 472 210 474 q 151 469 151 469 q 151 483 151 471 q 153 513 151 497 q 151 556 153 531 q 264 554 174 558 m 206 974 q 157 922 179 946 l 182 33 l 79 39 q 83 892 83 892 q 75 907 82 892 q 53 939 68 922 l 18 971 q 79 972 32 971 q 169 971 122 972 l 206 974 z "},"Э":{"ha":794,"x_min":3,"x_max":744,"o":"m 3 943 q 324 949 176 975 q 449 913 386 938 q 565 844 511 889 q 660 733 619 800 q 722 569 701 665 q 727 353 744 443 q 666 199 710 263 q 559 97 622 135 q 428 38 496 58 q 44 11 264 -12 l 42 89 q 338 90 210 61 q 444 131 393 103 q 535 206 496 158 q 594 319 574 253 q 614 472 615 386 q 165 467 614 476 q 164 561 163 504 q 608 554 539 554 q 583 650 601 601 q 533 742 565 699 q 460 810 500 785 q 378 851 421 836 q 164 878 282 886 l 96 874 l 11 861 l 3 943 z "},"Ю":{"ha":1232,"x_min":10,"x_max":1175,"o":"m 1057 476 q 1047 646 1064 575 q 998 766 1029 717 q 929 847 967 815 q 849 896 892 878 q 753 915 806 914 q 724 915 746 915 q 673 907 701 914 q 615 884 644 900 q 553 839 585 868 q 498 751 521 810 q 464 607 475 693 q 473 377 450 481 q 542 200 496 274 q 649 89 588 126 q 771 54 711 51 q 846 66 801 54 q 933 119 890 78 q 1010 244 976 161 q 1057 476 1044 328 m 749 972 q 953 928 861 971 q 1030 883 992 913 q 1099 808 1068 854 q 1149 699 1129 763 q 1174 554 1169 636 q 1140 314 1175 417 q 1046 142 1104 211 q 913 37 988 74 q 761 0 839 0 q 607 28 685 -1 q 469 119 529 57 q 375 281 408 182 q 346 474 346 364 l 154 474 q 164 75 163 79 q 257 1 167 68 l 14 1 q 68 57 67 51 q 68 456 68 60 q 71 893 68 851 l 65 913 l 10 971 l 199 971 q 153 911 178 947 l 153 551 l 350 560 q 390 726 360 658 q 476 860 428 810 q 590 941 524 911 q 749 972 657 971 z "},"Я":{"ha":811,"x_min":28,"x_max":783,"o":"m 639 897 q 433 903 528 911 q 342 885 382 896 q 273 853 303 874 q 222 799 243 832 q 197 721 201 767 q 217 640 197 674 q 265 580 236 606 q 340 537 294 554 q 425 510 385 519 q 639 486 521 489 l 639 897 m 314 482 q 207 528 256 500 q 133 597 168 553 q 93 715 97 642 q 124 838 93 790 q 210 915 156 886 q 335 956 264 944 q 483 971 406 968 q 638 972 560 974 q 783 968 715 971 l 779 886 l 717 892 q 726 65 726 68 q 734 53 728 63 q 749 32 740 44 q 769 1 757 17 l 560 10 q 597 50 581 31 q 624 83 611 68 q 636 101 636 97 q 636 428 635 104 q 514 440 572 432 q 426 454 464 447 q 378 464 389 461 q 339 404 358 439 q 296 336 319 374 q 246 257 272 299 q 118 46 190 164 l 28 117 l 314 482 z "},"а":{"ha":689,"x_min":0,"x_max":667,"o":"m 0 0 l 286 979 l 667 14 l 507 3 l 539 46 l 278 736 l 194 408 l 421 425 l 436 351 l 179 336 l 90 38 l 125 0 l 1 1 l 0 0 z "},"б":{"ha":685,"x_min":0,"x_max":639,"o":"m 264 554 q 451 524 367 550 q 522 488 488 510 q 585 426 556 467 q 626 348 614 386 q 638 263 639 310 q 608 155 636 200 q 535 79 581 110 q 431 31 490 49 q 306 7 372 14 q 171 1 239 0 q 38 10 103 3 q 37 50 38 36 q 36 71 36 64 q 36 82 36 79 q 36 86 36 83 q 161 67 107 71 q 280 68 215 64 q 399 93 344 72 q 493 159 454 114 q 536 283 532 204 q 510 376 536 340 q 441 435 483 413 q 347 464 399 457 q 253 472 296 471 q 181 472 210 474 q 151 469 151 469 q 151 483 151 471 q 153 513 151 497 q 151 556 153 531 q 264 554 174 558 m 607 786 l 549 876 l 526 893 q 151 894 160 894 l 182 33 l 79 39 q 83 892 83 892 q 69 892 82 892 q 40 890 57 892 l 0 888 l 1 971 q 86 971 32 971 q 615 965 122 972 l 607 786 z "},"в":{"ha":685,"x_min":0,"x_max":639,"o":"m 1 971 q 80 972 32 971 q 181 970 128 972 q 288 958 233 968 q 387 927 343 947 q 459 872 431 907 q 490 782 488 836 q 458 665 493 714 q 378 585 422 615 q 274 539 325 551 q 451 524 367 550 q 522 488 488 510 q 585 426 556 467 q 626 348 614 386 q 638 263 639 310 q 608 155 636 200 q 535 79 581 110 q 431 31 490 49 q 306 7 372 14 q 171 1 239 0 q 38 10 103 3 q 37 50 38 36 q 36 72 36 64 q 36 81 36 79 q 36 86 36 83 q 161 67 107 71 q 280 68 215 64 q 399 93 344 72 q 493 159 454 114 q 536 283 532 204 q 510 376 536 340 q 441 435 483 413 q 347 464 399 457 q 253 472 296 471 q 181 472 210 474 q 151 470 151 469 q 151 484 151 471 q 153 513 151 497 q 154 563 153 531 q 283 600 226 575 q 331 626 307 611 q 372 663 354 640 q 398 713 389 685 q 406 778 407 742 q 385 840 404 817 q 338 875 367 863 q 278 892 310 888 q 217 896 246 896 q 151 894 189 896 l 182 33 l 79 39 q 83 892 83 892 q 69 892 82 892 q 40 890 57 892 l 0 888 l 1 971 z "},"г":{"ha":696,"x_min":0,"x_max":654,"o":"m 0 969 l 654 967 l 650 782 q 618 829 633 807 q 592 865 606 847 q 569 885 579 882 q 543 887 565 886 q 142 883 521 888 q 164 75 163 79 q 257 1 167 68 l 14 1 q 68 57 67 51 q 63 477 68 60 q 61 888 57 894 l 3 888 l 0 969 z "},"д":{"ha":1029,"x_min":17,"x_max":1010,"o":"m 694 82 l 443 735 l 269 81 l 694 82 m 808 81 q 979 85 842 85 l 1010 -243 l 929 -247 l 908 3 l 865 3 l 476 1 l 204 1 l 204 1 l 115 -1 l 99 -253 l 17 -249 l 47 79 l 190 85 l 451 982 l 808 81 z "},"е":{"ha":692,"x_min":0,"x_max":643,"o":"m 0 972 l 643 963 l 642 799 q 588 843 613 822 q 535 886 563 864 l 158 890 l 161 557 l 424 569 l 424 481 l 163 481 l 172 79 q 486 86 485 85 q 601 161 490 88 l 601 3 l 33 3 l 33 79 l 74 76 l 74 893 l 0 893 l 0 972 z "},"ж":{"ha":1244,"x_min":17,"x_max":1215,"o":"m 493 969 l 733 968 l 693 940 q 651 908 651 911 l 658 653 l 1071 925 l 1135 868 l 786 663 l 1215 143 l 1128 71 l 722 622 l 656 582 l 669 60 q 707 31 671 56 l 744 6 l 503 3 q 575 58 575 57 q 571 583 572 381 l 510 622 l 104 69 l 17 143 l 444 663 l 96 868 l 160 925 l 571 654 q 569 903 569 903 q 493 969 568 903 z "},"з":{"ha":513,"x_min":7,"x_max":483,"o":"m 207 506 q 128 503 161 518 l 124 556 q 225 613 194 586 q 285 686 256 639 q 307 783 311 744 q 281 846 303 822 q 225 881 258 869 q 161 897 192 893 q 107 897 131 900 q 79 890 83 894 q 67 869 74 883 q 54 840 60 856 q 40 801 49 822 l 8 963 q 214 956 124 972 q 287 935 251 949 q 350 897 322 921 q 394 838 378 872 q 410 756 411 803 q 381 655 408 696 q 325 591 354 614 q 265 547 296 568 q 418 450 361 504 q 458 374 450 413 q 403 146 483 250 q 176 14 304 44 q 8 -3 108 -3 q 7 86 8 28 q 106 69 81 69 q 336 203 246 82 q 335 389 382 311 q 207 506 286 458 z "},"и":{"ha":744,"x_min":21,"x_max":664,"o":"m 524 4 q 561 60 543 28 q 546 672 563 171 l 118 7 l 115 1 l 22 1 l 21 967 l 172 972 q 129 899 169 975 q 118 142 122 875 l 625 963 l 664 3 l 524 4 z "},"й":{"ha":749,"x_min":25,"x_max":667,"o":"m 318 1165 l 385 989 l 496 1118 l 547 1086 l 372 903 l 224 1138 l 318 1165 m 667 3 l 629 963 l 121 142 q 133 899 126 875 q 175 972 174 975 l 25 967 l 26 1 l 118 1 l 121 7 l 549 672 q 565 60 567 171 q 526 4 547 28 l 667 3 z "},"к":{"ha":708,"x_min":0,"x_max":678,"o":"m 0 971 l 196 968 l 156 940 q 114 908 114 911 l 121 653 l 535 925 l 597 868 l 249 663 l 678 143 l 590 71 l 185 622 l 118 582 l 132 60 q 169 31 133 56 l 207 6 l 4 0 q 38 58 38 57 q 32 931 32 929 q 0 971 31 931 z "},"л":{"ha":689,"x_min":0,"x_max":667,"o":"m 0 0 l 286 979 l 667 14 l 507 3 l 539 46 l 278 736 l 90 38 l 125 0 l 1 1 l 0 0 z "},"м":{"ha":851,"x_min":1,"x_max":771,"o":"m 14 971 l 192 967 l 442 414 l 683 911 l 771 917 l 769 43 l 606 42 q 635 56 621 49 q 674 79 646 61 q 678 757 675 81 l 414 225 l 132 842 q 149 47 146 49 q 171 35 151 43 q 251 1 190 26 l 1 1 q 35 26 18 14 q 58 48 47 38 q 71 64 69 58 q 67 485 71 68 q 63 904 64 903 q 52 919 60 908 q 36 943 44 931 q 14 971 26 957 z "},"н":{"ha":725,"x_min":1,"x_max":644,"o":"m 504 4 q 542 60 524 28 q 536 317 543 171 l 99 299 l 96 1 l 3 1 l 1 967 l 153 972 q 110 899 150 975 q 99 371 103 875 l 532 382 l 506 957 l 606 963 l 644 3 l 504 4 z "},"о":{"ha":888,"x_min":4,"x_max":839,"o":"m 413 974 q 617 931 525 972 q 694 885 657 914 q 763 810 732 856 q 814 702 794 765 q 838 557 833 639 q 804 317 839 419 q 711 144 769 214 q 578 39 653 75 q 426 1 504 3 q 272 29 349 0 q 134 122 194 58 q 39 283 74 185 q 13 518 4 382 q 55 729 18 646 q 140 863 92 813 q 255 942 189 913 q 413 974 321 972 m 721 478 q 710 647 728 576 q 662 768 693 718 q 593 849 631 818 q 513 898 556 881 q 417 917 469 915 q 388 916 410 917 q 338 909 367 915 q 280 887 310 903 q 218 841 250 871 q 163 753 186 811 q 129 610 139 694 q 138 378 114 482 q 207 202 161 275 q 314 91 253 129 q 435 56 375 53 q 510 67 465 56 q 597 121 554 79 q 675 247 640 163 q 721 478 710 331 z "},"п":{"ha":725,"x_min":-1,"x_max":661,"o":"m 6 950 l 625 971 l 661 1 l 543 0 l 575 56 l 550 897 l 86 883 q 114 58 113 65 q 128 41 117 53 q 151 22 140 29 q 185 0 168 10 l -1 0 l 36 46 l 6 950 z "},"р":{"ha":672,"x_min":1,"x_max":618,"o":"m 1 957 q 308 965 172 975 q 422 947 367 960 q 520 912 476 933 q 591 857 564 890 q 618 776 618 824 q 594 672 618 714 q 529 604 569 631 q 439 565 489 578 q 338 547 389 553 q 164 536 286 542 q 111 543 118 536 q 117 560 104 550 q 163 592 129 571 q 350 608 269 589 q 417 629 385 617 q 474 660 450 642 q 510 702 499 678 q 518 760 522 726 q 463 853 507 822 q 362 894 418 883 q 248 902 306 906 q 154 894 190 899 q 183 89 183 90 q 198 74 186 86 q 224 49 210 61 q 260 14 240 32 l 42 4 q 61 21 53 14 q 76 35 69 29 q 83 44 82 42 q 76 886 83 47 l 6 878 l 1 957 z "},"с":{"ha":722,"x_min":10,"x_max":657,"o":"m 657 956 l 611 844 q 360 857 469 881 q 269 822 313 846 q 192 752 225 797 q 142 638 160 707 q 129 468 124 568 q 155 290 133 361 q 208 176 176 219 q 278 110 239 132 q 358 83 318 89 q 569 122 453 69 l 617 15 q 307 26 442 -12 q 195 75 249 42 q 100 163 142 108 q 34 299 58 217 q 14 494 10 381 q 72 703 19 611 q 213 858 125 796 q 415 945 300 919 q 657 956 531 971 z "},"т":{"ha":764,"x_min":1,"x_max":715,"o":"m 713 969 l 715 811 q 696 843 706 826 q 680 867 689 856 q 664 883 671 879 q 374 882 656 889 q 400 85 400 88 q 431 43 401 76 l 465 0 l 203 1 q 275 49 261 38 q 296 65 289 60 q 283 881 301 72 q 67 878 72 879 l 38 847 q 1 806 21 828 l 3 942 l 713 969 z "},"у":{"ha":764,"x_min":0,"x_max":744,"o":"m 0 971 l 163 964 l 143 949 q 131 936 136 943 q 124 926 125 929 q 465 554 124 924 q 581 904 582 901 q 569 918 578 910 q 551 936 561 926 q 526 960 540 947 l 744 951 l 681 893 l 383 49 l 443 1 l 193 1 q 264 46 250 35 q 281 64 278 57 q 428 485 282 68 q 88 847 122 799 q 29 929 54 894 q 0 971 4 964 z "},"ф":{"ha":888,"x_min":4,"x_max":839,"o":"m 322 972 q 515 971 419 968 q 472 911 453 914 q 617 881 550 904 q 694 844 657 867 q 763 784 732 821 q 814 697 794 747 q 838 581 833 647 q 804 389 839 471 q 711 251 769 307 q 590 171 653 196 q 472 140 526 146 q 474 75 474 103 q 557 1 492 53 q 314 -1 433 1 q 379 74 356 26 q 379 139 379 115 q 260 163 325 143 q 134 233 194 182 q 39 362 74 283 q 13 550 4 440 q 55 719 18 653 q 140 826 92 785 q 248 888 189 867 q 381 913 307 908 q 322 972 374 928 m 468 183 q 478 183 468 182 q 506 188 489 183 q 547 203 524 193 q 593 231 569 213 q 640 278 617 250 q 682 347 664 306 q 724 550 721 458 q 690 707 728 642 q 632 783 661 754 q 576 827 603 811 q 522 851 549 843 q 472 864 496 858 l 469 524 q 469 400 469 461 q 468 291 468 339 q 468 213 468 243 q 468 183 468 183 m 381 186 q 381 217 381 188 q 380 294 381 246 q 379 403 379 342 q 378 528 379 464 q 376 867 376 676 q 315 856 346 863 q 256 835 285 850 q 201 791 226 819 q 153 714 175 763 q 129 628 136 668 q 124 547 122 588 q 135 460 125 506 q 164 358 146 414 q 208 294 183 321 q 256 248 232 267 q 302 218 279 229 q 342 201 325 207 q 370 192 360 194 q 381 186 381 189 z "},"х":{"ha":779,"x_min":1,"x_max":747,"o":"m 654 3 l 358 440 l 76 36 l 1 81 l 313 513 l 40 918 l 142 972 l 379 593 l 600 931 l 679 903 l 426 525 l 747 65 l 654 3 z "},"ц":{"ha":876,"x_min":28,"x_max":842,"o":"m 550 4 l 132 0 l 129 1 l 36 1 l 28 960 l 185 961 q 128 913 163 954 q 132 72 136 889 l 544 83 l 529 844 l 532 897 q 497 934 517 918 q 457 964 478 950 l 665 968 l 632 899 l 654 96 l 811 90 l 842 -237 l 760 -242 l 743 10 l 550 4 z "},"ч":{"ha":732,"x_min":33,"x_max":733,"o":"m 515 958 l 733 949 l 660 892 q 671 65 671 68 q 677 53 671 63 q 692 32 683 44 q 714 1 701 17 l 504 10 q 540 50 524 31 q 567 83 556 68 q 579 101 579 97 q 579 428 578 104 q 457 440 515 432 q 370 454 408 447 q 321 464 332 461 l 257 482 q 153 525 199 500 q 63 658 92 567 q 56 958 33 749 l 222 954 l 146 906 l 129 885 q 150 665 119 725 q 210 580 181 606 q 284 537 239 554 q 369 510 329 519 q 582 486 464 489 l 583 897 l 515 958 z "},"ш":{"ha":976,"x_min":21,"x_max":915,"o":"m 801 4 l 125 0 l 122 1 l 29 1 l 21 954 l 178 954 q 121 906 156 947 q 125 72 129 882 l 433 76 l 450 868 l 517 871 l 538 79 l 796 83 l 781 843 l 783 896 q 749 934 768 918 q 708 963 729 950 l 915 968 l 882 899 l 908 3 l 801 4 z "},"щ":{"ha":1124,"x_min":24,"x_max":1096,"o":"m 804 4 l 128 0 l 125 1 l 32 1 l 24 954 l 181 954 q 125 906 160 947 q 128 72 133 882 l 436 76 l 454 868 l 519 871 l 542 79 l 799 83 l 783 843 l 786 896 q 751 934 771 918 q 711 963 732 950 l 919 968 l 886 899 l 908 96 l 1065 90 l 1096 -237 l 1014 -242 l 997 10 l 804 4 z "},"ъ":{"ha":725,"x_min":3,"x_max":699,"o":"m 324 554 q 511 524 426 550 q 581 488 547 510 q 644 426 615 467 q 686 348 674 386 q 697 263 699 310 q 668 155 696 200 q 595 79 640 110 q 491 31 550 49 q 365 7 432 14 q 231 1 299 0 q 97 10 163 3 q 97 50 97 36 q 96 71 96 64 q 96 82 96 79 q 96 86 96 83 q 221 67 167 71 q 340 68 275 64 q 459 93 404 72 q 553 159 514 114 q 596 283 592 204 q 569 376 596 340 q 501 435 543 413 q 407 464 458 457 q 313 472 356 471 q 240 472 269 474 q 211 469 211 469 q 211 483 211 471 q 213 513 211 497 q 211 556 213 531 q 324 554 232 558 m 271 972 q 272 890 271 929 q 217 889 232 888 l 242 33 l 139 39 q 143 892 143 892 q 87 891 142 892 q 3 889 32 890 l 3 971 q 139 972 17 971 q 229 972 182 972 l 271 972 z "},"ы":{"ha":894,"x_min":18,"x_max":850,"o":"m 264 554 q 451 524 367 550 q 522 488 488 510 q 585 426 556 467 q 626 348 614 386 q 638 263 639 310 q 608 155 636 200 q 535 79 581 110 q 431 31 490 49 q 306 7 372 14 q 171 1 239 0 q 38 10 103 3 q 37 50 38 36 q 36 71 36 64 q 36 82 36 79 q 36 86 36 83 q 161 67 107 71 q 280 68 215 64 q 399 93 344 72 q 493 159 454 114 q 536 283 532 204 q 510 376 536 340 q 441 435 483 413 q 347 464 399 457 q 253 472 296 471 q 181 472 210 474 q 151 469 151 469 q 151 483 151 471 q 153 513 151 497 q 151 556 153 531 q 264 554 174 558 m 206 974 q 157 922 179 946 l 182 33 l 79 39 q 83 892 83 892 q 75 907 82 892 q 53 939 68 922 l 18 971 q 79 972 32 971 q 169 971 122 972 l 206 974 m 618 968 l 808 968 q 785 947 794 956 q 770 931 779 939 q 760 917 761 922 q 763 496 760 915 q 767 75 765 76 q 850 0 769 71 l 621 -3 q 667 49 661 33 q 673 476 669 54 q 676 903 676 899 q 664 921 672 911 q 618 968 656 931 z "},"ь":{"ha":663,"x_min":18,"x_max":639,"o":"m 264 554 q 451 524 367 550 q 522 488 488 510 q 585 426 556 467 q 626 348 614 386 q 638 263 639 310 q 608 155 636 200 q 535 79 581 110 q 431 31 490 49 q 306 7 372 14 q 171 1 239 0 q 38 10 103 3 q 37 50 38 36 q 36 71 36 64 q 36 82 36 79 q 36 86 36 83 q 161 67 107 71 q 280 68 215 64 q 399 93 344 72 q 493 159 454 114 q 536 283 532 204 q 510 376 536 340 q 441 435 483 413 q 347 464 399 457 q 253 472 296 471 q 181 472 210 474 q 151 469 151 469 q 151 483 151 471 q 153 513 151 497 q 151 556 153 531 q 264 554 174 558 m 206 974 q 157 922 179 946 l 182 33 l 79 39 q 83 892 83 892 q 75 907 82 892 q 53 939 68 922 l 18 971 q 79 972 32 971 q 169 971 122 972 l 206 974 z "},"э":{"ha":794,"x_min":3,"x_max":744,"o":"m 3 943 q 324 949 176 975 q 449 913 386 938 q 565 844 511 889 q 660 733 619 800 q 722 569 701 665 q 727 353 744 443 q 666 199 710 263 q 559 97 622 135 q 428 38 496 58 q 44 11 264 -12 l 42 89 q 338 90 210 61 q 444 131 393 103 q 535 206 496 158 q 594 319 574 253 q 614 472 615 386 q 165 467 614 476 q 164 561 163 504 q 608 554 539 554 q 583 650 601 601 q 533 742 565 699 q 460 810 500 785 q 378 851 421 836 q 164 878 282 886 l 96 874 l 11 861 l 3 943 z "},"ю":{"ha":1232,"x_min":10,"x_max":1175,"o":"m 1057 476 q 1047 646 1064 575 q 998 766 1029 717 q 929 847 967 815 q 849 896 892 878 q 753 915 806 914 q 724 915 746 915 q 673 907 701 914 q 615 884 644 900 q 553 839 585 868 q 498 751 521 810 q 464 607 475 693 q 473 377 450 481 q 542 200 496 274 q 649 89 588 126 q 771 54 711 51 q 846 66 801 54 q 933 119 890 78 q 1010 244 976 161 q 1057 476 1044 328 m 749 972 q 953 928 861 971 q 1030 883 992 913 q 1099 808 1068 854 q 1149 699 1129 763 q 1174 554 1169 636 q 1140 314 1175 417 q 1046 142 1104 211 q 913 37 988 74 q 761 0 839 0 q 607 28 685 -1 q 469 119 529 57 q 375 281 408 182 q 346 474 346 364 l 154 474 q 164 75 163 79 q 257 1 167 68 l 14 1 q 68 57 67 51 q 68 456 68 60 q 71 893 68 851 l 65 913 l 10 971 l 199 971 q 153 911 178 947 l 153 551 l 350 560 q 390 726 360 658 q 476 860 428 810 q 590 941 524 911 q 749 972 657 971 z "},"я":{"ha":811,"x_min":28,"x_max":783,"o":"m 639 897 q 433 903 528 911 q 342 885 382 896 q 273 853 303 874 q 222 799 243 832 q 197 721 201 767 q 217 640 197 674 q 265 580 236 606 q 340 537 294 554 q 425 510 385 519 q 639 486 521 489 l 639 897 m 314 482 q 207 528 256 500 q 133 597 168 553 q 93 715 97 642 q 124 838 93 790 q 210 915 156 886 q 335 956 264 944 q 483 971 406 968 q 638 972 560 974 q 783 968 715 971 l 779 886 l 717 892 q 726 65 726 68 q 734 53 728 63 q 749 32 740 44 q 769 1 757 17 l 560 10 q 597 50 581 31 q 624 83 611 68 q 636 101 636 97 q 636 428 635 104 q 514 440 572 432 q 426 454 464 447 q 378 464 389 461 q 339 404 358 439 q 296 336 319 374 q 246 257 272 299 q 118 46 190 164 l 28 117 l 314 482 z "},"ё":{"ha":692,"x_min":0,"x_max":643,"o":"m 0 972 l 643 963 l 642 799 q 588 843 613 822 q 535 886 563 864 l 158 890 l 161 557 l 424 569 l 424 481 l 163 481 l 172 79 q 486 86 485 85 q 601 161 490 88 l 601 3 l 33 3 l 33 79 l 74 76 l 74 893 l 0 893 l 0 972 m 282 1057 q 253 1040 271 1042 q 224 1049 236 1039 q 208 1077 210 1060 q 217 1110 206 1094 q 242 1125 226 1122 q 271 1118 258 1128 q 287 1088 285 1106 q 282 1057 289 1071 m 374 1092 q 395 1106 382 1106 q 421 1100 408 1107 q 433 1073 432 1088 q 429 1044 435 1058 q 406 1030 419 1032 q 378 1039 393 1028 q 367 1063 369 1047 q 374 1092 365 1079 z "},"–":{"ha":335,"x_min":10,"x_max":267,"o":"m 10 526 l 260 567 l 267 525 l 39 458 l 10 526 z "},"—":{"ha":499,"x_min":0,"x_max":426,"o":"m 0 471 l 426 493 l 424 418 l 4 428 l 0 471 l 0 471 z "},"‘":{"ha":196,"x_min":10,"x_max":124,"o":"m 25 894 q 11 947 10 921 q 30 996 14 969 q 97 1046 46 1022 l 117 1022 q 69 1001 82 1013 q 56 978 57 989 q 111 949 90 983 q 120 905 124 928 q 97 871 117 882 q 58 869 78 863 q 25 894 38 875 z "},"’":{"ha":193,"x_min":3,"x_max":129,"o":"m 92 1028 q 122 982 115 1007 q 121 930 129 960 q 75 860 113 900 l 46 878 q 84 913 76 899 q 90 939 92 928 q 60 934 76 932 q 29 949 43 936 q 6 988 10 965 q 17 1026 3 1010 q 51 1042 31 1042 q 92 1028 72 1042 z "},"“":{"ha":278,"x_min":1,"x_max":206,"o":"m 39 985 q 85 960 68 989 q 92 922 94 942 q 74 893 89 903 q 42 891 58 886 q 13 913 25 896 q 3 956 1 935 q 19 998 4 976 q 75 1043 33 1019 l 92 1019 q 51 1002 61 1011 q 39 985 40 993 m 143 953 q 181 917 172 950 q 176 879 185 897 q 151 857 167 861 q 118 864 133 854 q 99 892 103 874 l 99 889 q 100 936 93 914 q 128 973 107 954 q 193 1000 149 992 l 206 974 q 160 967 174 974 q 143 953 147 961 z "},"”":{"ha":251,"x_min":0,"x_max":194,"o":"m 169 964 q 119 956 150 944 q 93 981 101 964 q 92 1014 85 997 q 114 1035 99 1029 q 146 1033 129 1040 q 179 1006 168 1024 q 192 965 189 990 q 176 899 194 939 l 151 906 q 171 942 169 929 q 169 964 172 956 m 71 928 q 22 933 46 914 q 3 965 7 947 q 11 997 0 983 q 38 1011 22 1010 q 69 1000 54 1013 q 94 965 88 986 q 94 922 100 947 q 60 863 88 896 l 36 878 q 67 907 60 894 q 71 928 74 919 z "},"⁄":{"ha":399,"x_min":0,"x_max":342,"o":"m 258 778 l 342 764 l 46 86 l 0 101 l 258 778 l 258 778 z "},"€":{"ha":565,"x_min":0,"x_max":482,"o":"m 482 169 q 297 176 379 154 q 227 205 261 186 q 166 256 193 224 q 120 335 139 288 q 97 446 101 382 l 46 449 l 43 489 l 97 494 l 97 503 q 98 517 97 511 q 99 531 99 524 l 6 524 l 0 571 l 104 572 q 147 710 117 658 q 215 792 178 763 q 297 833 253 822 q 376 841 340 843 q 440 828 413 839 q 475 808 467 818 l 476 726 q 432 768 447 753 q 368 785 393 783 q 317 781 343 786 q 267 758 290 776 q 219 695 243 740 q 190 572 194 650 l 258 572 l 257 538 l 188 533 l 188 511 l 188 500 l 300 510 l 299 442 l 192 444 q 219 323 199 368 q 268 256 240 278 q 325 227 296 233 q 378 224 354 221 q 419 233 403 228 q 436 240 436 238 l 481 311 l 482 169 z "},"™":{"ha":486,"x_min":3,"x_max":415,"o":"m 3 976 l 181 975 l 179 958 l 96 958 l 111 771 l 82 769 l 76 961 l 4 961 l 3 976 m 203 769 l 226 768 l 219 928 l 294 774 l 375 935 l 382 771 l 415 771 l 401 975 l 376 975 l 300 813 l 217 976 l 203 976 l 203 769 z "},"−":{"ha":443,"x_min":0,"x_max":357,"o":"m 0 563 l 357 585 l 354 510 l 4 519 l 0 563 z "},"Ş":{"ha":528,"x_min":-1,"x_max":474,"o":"m 457 969 l 457 878 q 415 889 440 883 q 369 895 390 894 q 306 888 347 896 q 225 854 265 881 q 147 785 185 828 q 106 663 108 743 q 139 565 106 608 q 210 495 172 522 q 293 442 249 468 q 377 385 338 417 q 444 313 417 354 q 472 213 471 272 q 457 131 474 165 q 413 72 440 96 q 349 33 385 47 q 275 13 313 19 q 71 6 186 -4 l 101 167 q 115 128 110 146 q 128 99 122 113 q 140 78 135 85 q 168 71 144 74 q 222 72 192 68 q 286 87 253 75 q 342 122 319 99 q 368 185 364 146 q 346 282 372 224 q 283 359 317 329 q 211 411 249 389 q 138 452 174 433 q 72 494 101 471 q 23 551 43 518 q 1 635 3 583 q 35 776 -1 713 q 134 883 71 839 q 280 949 197 926 q 457 969 363 972 m 207 10 q 214 8 206 7 q 232 8 222 8 q 257 10 243 8 q 249 -4 253 3 q 244 -17 246 -11 q 249 -28 243 -24 q 261 -33 253 -32 q 278 -36 269 -35 q 294 -42 286 -37 q 308 -56 303 -46 q 291 -101 319 -76 q 190 -125 263 -125 q 190 -107 190 -125 l 190 -89 q 236 -92 215 -93 q 267 -85 253 -90 q 283 -64 282 -79 q 276 -49 285 -51 q 257 -47 268 -46 q 235 -48 246 -47 q 218 -42 224 -49 q 210 -26 213 -36 q 208 -8 208 -17 q 207 6 207 0 q 207 10 207 11 z "},"ş":{"ha":528,"x_min":-1,"x_max":474,"o":"m 457 969 l 457 878 q 415 889 440 883 q 369 895 390 894 q 306 888 347 896 q 225 854 265 881 q 147 785 185 828 q 106 663 108 743 q 139 565 106 608 q 210 495 172 522 q 293 442 249 468 q 377 385 338 417 q 444 313 417 354 q 472 213 471 272 q 457 131 474 165 q 413 72 440 96 q 349 33 385 47 q 275 13 313 19 q 71 6 186 -4 l 101 167 q 115 128 110 146 q 128 99 122 113 q 140 78 135 85 q 168 71 144 74 q 222 72 192 68 q 286 87 253 75 q 342 122 319 99 q 368 185 364 146 q 346 282 372 224 q 283 359 317 329 q 211 411 249 389 q 138 452 174 433 q 72 494 101 471 q 23 551 43 518 q 1 635 3 583 q 35 776 -1 713 q 134 883 71 839 q 280 949 197 926 q 457 969 363 972 m 207 10 q 214 8 206 7 q 232 8 222 8 q 257 10 243 8 q 249 -4 253 3 q 244 -17 246 -11 q 249 -28 243 -24 q 261 -33 253 -32 q 278 -36 269 -35 q 294 -42 286 -37 q 308 -56 303 -46 q 291 -101 319 -76 q 190 -125 263 -125 q 190 -107 190 -125 l 190 -89 q 236 -92 215 -93 q 267 -85 253 -90 q 283 -64 282 -79 q 276 -49 285 -51 q 257 -47 268 -46 q 235 -48 246 -47 q 218 -42 224 -49 q 210 -26 213 -36 q 208 -8 208 -17 q 207 6 207 0 q 207 10 207 11 z "},"ğ":{"ha":753,"x_min":11,"x_max":683,"o":"m 663 963 l 667 800 l 635 840 q 610 870 622 857 q 592 885 599 883 q 431 871 510 893 q 287 799 353 849 q 180 672 221 749 q 133 493 139 594 q 151 314 126 396 q 234 175 175 232 q 378 91 293 118 q 581 83 463 64 l 544 471 l 292 460 l 288 542 l 617 547 l 683 24 q 339 19 493 -14 q 212 65 274 33 q 105 151 150 96 q 35 291 60 207 q 21 496 11 375 q 60 647 25 578 q 147 774 94 715 q 265 872 199 833 q 401 935 331 911 q 539 964 471 958 q 663 963 607 969 m 464 1019 q 440 986 453 1001 q 415 963 429 974 q 381 953 400 953 q 342 963 357 953 q 319 986 328 974 q 304 1019 310 1001 l 326 1022 q 338 999 331 1010 q 353 980 344 989 q 378 968 363 971 q 403 974 392 965 q 422 994 415 983 q 438 1024 431 1007 l 464 1019 l 464 1019 z "},"Ğ":{"ha":750,"x_min":11,"x_max":683,"o":"m 663 963 l 667 800 l 635 840 q 610 870 622 857 q 592 885 599 883 q 431 871 510 893 q 287 799 353 849 q 180 672 221 749 q 133 493 139 594 q 151 314 126 396 q 234 175 175 232 q 378 91 293 118 q 581 83 463 64 l 544 471 l 292 460 l 288 542 l 617 547 l 683 24 q 339 19 493 -14 q 212 65 274 33 q 105 151 150 96 q 35 291 60 207 q 21 496 11 375 q 60 647 25 578 q 147 774 94 715 q 265 872 199 833 q 401 935 331 911 q 539 964 471 958 q 663 963 607 969 m 464 1019 q 440 986 453 1001 q 415 963 429 974 q 381 953 400 953 q 342 963 357 953 q 319 986 328 974 q 304 1019 310 1001 l 326 1022 q 338 999 331 1010 q 353 980 344 989 q 378 968 363 971 q 403 974 392 965 q 422 994 415 983 q 438 1024 431 1007 l 464 1019 l 464 1019 z "},"ı":{"ha":296,"x_min":3,"x_max":235,"o":"m 3 971 l 192 971 q 169 950 179 960 q 154 933 163 942 q 144 919 146 925 q 147 499 144 918 q 151 78 150 79 q 235 3 154 74 l 6 0 q 51 51 44 38 q 58 480 54 57 q 61 907 61 903 q 49 924 57 914 q 3 971 40 935 z "},"İ":{"ha":293,"x_min":3,"x_max":235,"o":"m 3 971 l 192 971 q 169 950 179 960 q 154 933 163 942 q 144 919 146 925 q 147 499 144 918 q 151 78 150 79 q 235 3 154 74 l 6 0 q 51 51 44 38 q 58 480 54 57 q 61 907 61 903 q 49 924 57 914 q 3 971 40 935 m 135 1017 q 107 999 124 1000 q 76 1008 90 999 q 62 1037 64 1019 q 69 1069 60 1054 q 95 1085 79 1082 q 124 1078 111 1088 q 140 1048 138 1065 q 135 1017 142 1031 z "},"¥":{"ha":764,"x_min":0,"x_max":744,"o":"m 0 971 l 163 964 l 143 949 q 131 936 136 943 q 124 926 125 929 q 360 560 124 924 q 581 904 582 901 q 569 918 578 910 q 551 936 561 926 q 526 960 540 947 l 744 951 l 681 893 l 413 482 l 438 49 l 497 1 l 247 1 q 318 46 304 35 q 335 64 332 57 q 336 89 336 68 q 336 142 336 110 q 335 213 336 174 q 332 292 333 251 q 322 490 326 386 q 160 742 199 686 q 88 847 122 799 q 29 929 54 894 q 0 971 4 964 m 206 338 l 203 378 l 543 392 l 543 339 l 206 338 m 551 467 l 554 428 l 211 438 l 217 493 l 551 467 z "}}}
